<svg class="r_e_a9584" viewBox="0 0 175 26"
  xmlns="http://www.w3.org/2000/svg">
  <g fill="none" fill-rule="evenodd">
    <g fill="#25282a">
      <path d="M104.44 14.78l-1.41-.25c-1.4-.26-2.6-.6-2.6-2.05 0-1.25 1.27-1.83 2.85-1.83 2.35 0 4.42 1.1 4.65 1.22l1.3-3.5c-.5-.26-2.6-1.42-5.91-1.42-3.03 0-6.73 1.64-6.73 5.7 0 3.65 2.53 4.82 4.97 5.26l1.7.3c1.64.29 2.54.92 2.54 2.02 0 1.4-1.28 2.06-3.22 2.06-3.1 0-4.92-.95-5.45-1.18l-1.42 3.43c.44.23 2.56 1.46 6.69 1.46 4 0 7.22-2.04 7.22-5.84-.03-3.54-2.34-4.88-5.18-5.38M116.69.58l-3.8 2.16V7.3h-2v3.73h2v8.07c0 3.44 1.38 6.53 6.24 6.53h1.52v-3.73h-.57c-2.4 0-3.4-1.42-3.4-3.34v-7.53h4.36V7.3h-4.35V.58M146.33 10.75c1.48 0 3 .69 3.45 2.36l3.44-1.34c-.96-3.5-4.13-4.82-6.92-4.82-5 0-7.02 3.2-7.02 6.3v6.45c0 3.1 2.02 6.3 7.02 6.3 2.8 0 5.96-1.31 6.92-4.82l-3.44-1.34c-.46 1.67-1.97 2.37-3.45 2.37-2.58 0-3.26-1.45-3.26-3.1v-5.26c0-1.65.68-3.1 3.26-3.1M162.55 15.54l7.1-8.23h-4.67l-6.1 7.18V.58h-3.8v25.06h3.8v-5.83l1.24-1.45 5.44 7.28h4.55l-7.56-10.1"/>
    </g>
    <g fill="#f12815">
      <path d="M131.66 11.3h-3.95c-.63 0-1.14.53-1.14 1.18v4.4h-3.89v-4.4a5.1 5.1 0 015.03-5.17h3.95v4M128.45 21.64h3.94c.63 0 1.14-.52 1.14-1.16v-4.4h3.89v4.4a5.1 5.1 0 01-5.03 5.16h-3.94v-4"/>
    </g>
    <g fill="#f12815">
      <path d="M64.1 7.3h4.36v3.74H64.1v7.53c0 1.92 1 3.34 3.4 3.34h.56v3.73h-1.52c-4.86 0-6.23-3.09-6.23-6.53v-8.07h-6.39v7.53c0 1.92 1 3.34 3.4 3.34h.56v3.73h-1.52c-4.86 0-6.23-3.09-6.23-6.53v-8.07H48.2V7.3h1.93V2.74l3.8-2.16v6.73h6.38V2.74L64.1.58v6.73M23.14 6.95c-1.2 0-2.42.24-3.51.72V.58h-3.8v25.06h3.8V11.32c.76-.5 1.86-.8 2.93-.8 2.39 0 3.5 1.37 3.5 3.38v11.74h3.8V13.37c0-3.7-2.6-6.42-6.72-6.42M42.37 22c-.72.4-1.63.63-2.54.63-2.83 0-3.9-1.49-3.9-3.53V7.3h-3.79v11.87c0 4.61 2.6 6.83 7.23 6.83 2.21 0 4.67-.58 6.8-1.52V7.3h-3.8V22M8.74 14.78l-1.42-.25c-1.4-.26-2.6-.6-2.6-2.05 0-1.25 1.27-1.83 2.85-1.83 2.36 0 4.42 1.1 4.66 1.22l1.28-3.5c-.49-.26-2.59-1.42-5.9-1.42-3.03 0-6.73 1.64-6.73 5.7 0 3.65 2.53 4.82 4.97 5.26l1.7.3c1.64.29 2.54.92 2.54 2.02 0 1.4-1.28 2.06-3.21 2.06-3.1 0-4.93-.95-5.45-1.18L0 24.54C.45 24.77 2.56 26 6.7 26c4 0 7.22-2.04 7.22-5.84-.04-3.54-2.35-4.88-5.18-5.38M80.35 15.09h-6.4v-1.34c0-1.49.73-3.08 3.22-3.08 2.4 0 3.18 1.55 3.18 3v1.42zm3.8-1.84c0-3.35-2.49-6.3-6.96-6.3-5.07 0-7.02 3.26-7.02 6.3v6.1c0 4.2 2.62 6.65 7.02 6.65 3.89 0 5.9-2.31 6.5-3.7l-3.2-1.98c-.27.82-1.54 1.96-3.27 1.96-2.35 0-3.25-1.34-3.25-3.03l-.01-1h10.19v-5zM86.58 13.26v12.38h3.79V13.6c0-1.05.58-2.85 3.36-2.85.44 0 1.43.13 1.74.2v-3.8a9.3 9.3 0 00-1.93-.19c-4.82 0-6.96 3.11-6.96 6.31"/>
    </g>
  </g>
</svg>