<svg xmlns="http://www.w3.org/2000/svg" width="600" height="600" fill="none">
    <path fill="#6B8DC8" d="M473.48 599.552h-91.823c-.59-.645-.743-1.438-.749-2.274-.011-2.991-.475-5.992-.453-8.944.06-8.353-.563-16.678-.76-25.015-.257-10.774-.673-21.555-1.154-32.324-.208-4.608-.005-9.244-.601-13.83-.486-2.181-1.509-4.023-3.132-5.62-2.969-2.919-4.018-6.057-2.996-10.545 1.132-4.974.508-10.31.159-15.481-.06-.864-.443-1.76-1.154-2.422-1.717-1.585-1.596-3.324-.393-5.139.202-.3.535-.574.579-.912.787-6.353 1.443-12.727-1.7-18.691-.826-1.563-1.219-2.99.098-4.198 1.454-1.328 1.728-2.87 1.684-4.658-.049-2.088.06-4.187-.044-6.275-.126-2.455-2.236-5.303-4.275-5.915-2.06-1.263-4.176-2.203-6.609-.968-.935.121-1.809-.049-2.613-.541-4.094-2.487-7.899-1.651-11.72.782-1.76 1.12-3.204 3.094-5.713 2.679-.869-.563-1.301-1.504-1.907-2.286-4.592-5.903-13.033-7.128-19.057-2.755-5.992 4.346-7.533 12.787-3.461 18.953.553.831 1.225 1.602 1.154 2.695-.175.651-.618 1.104-1.137 1.476-3.378 2.433-6.795 4.822-10.228 7.178-2.181 1.498-3.094 1.23-4.204-1.197-2.378-5.183-4.592-10.436-6.932-15.635-1.415-3.143-3.012-6.183-4.531-9.271-1.892-4.937-4.844-9.392-6.642-14.367-1.482-4.094-3.007-8.161-1.99-12.737.437-1.984-.749-3.881-1.853-5.57-4.581-7.008-11.114-11.748-18.537-15.246-14.121-6.648-29.088-9.562-44.652-10.343-12.955-.651-25.632.475-38.074 3.941-8.32 2.312-16.225 5.68-22.217 12.207-3.679 4.007-6.106 8.637-4.652 14.405 1.045 4.81 1.126 9.73 1.52 14.595.826 10.267 3.072 20.287 4.816 30.389 4.893 28.311 12.125 56.109 18.477 84.104.842 3.717 2.313 7.276 2.832 11.075-.011 1.634-1.307 2.269-2.405 3.056-3.619 2.596-7.369 5.002-10.961 7.642-.738.541-1.487 1.055-1.919 1.897-2.356 3.717-2.706 7.484-.333 11.343.328.53.639 1.082.678 1.727-.121 1.269-1.159 1.772-2.028 2.4-2.728 1.957-5.489 3.898-8.053 6.041-3.854 3.22-4.745 7.67-2.842 12.272.301.728.945 1.383.579 2.28h-40.447c-.875-.979-.793-2.187-.804-3.362-.071-10.917 1.001-21.779 1.482-32.668.568-12.912 2.29-25.71 3.537-38.551 1.273-13.119 2.591-26.234 4.012-39.337.716-6.593 1.225-13.219 1.985-19.806.749-6.494 1.913-12.945 2.941-19.412 1.864-11.753 3.017-23.604 5.1-35.33 1.323-7.446 3.444-14.705 4.827-22.123 3.356-18.018 9.818-35.194 14.371-52.89 1.334-5.177 3.565-10.118 5.522-15.115.393-1.011.875-2.012 1.815-2.668 1.323-.524 2.274.252 3.203.979 21.921 17.138 45.985 30.771 71.022 42.705 28.497 13.59 58 24.578 88.526 32.739 2.755.738 4.794 2.116 6.642 4.363 12.13 14.699 26.83 25.851 45.236 31.564 8.134 2.525 16.416 3.263 24.736.656 7.653-2.4 12.737-7.478 15.651-14.864.454-1.142.536-2.832 2.006-2.99 1.618-.18 2.176 1.481 2.766 2.64 2.515 4.948 5.117 9.851 7.73 14.744.902 1.694.804 3.094-.836 4.28-4.805 3.46-4.177 9.353-2.023 13.011 2.613 4.449 6.391 7.21 11.819 6.877 1.935-.121 2.81.962 3.52 2.427 2.75 5.647 5.079 11.479 7.462 17.285 11.19 27.262 19.855 55.289 25.507 84.229 2.422 12.415 4.084 24.933 5.248 37.523.121 1.099.208 2.208-.628 3.116Z"/>
    <path fill="#020203" d="M473.48 599.552c-.404-9.266-1.651-18.439-3.089-27.585-6.232-39.78-18.679-77.658-35.068-114.339-.76-1.7-1.481-2.044-3.411-1.897-4.838.372-8.56-2.077-11.261-5.942-2.536-3.635-3.291-7.631-1.547-11.857.678-1.651 1.924-2.87 3.52-3.668.891-.448 1.241-.897.717-1.891-3.198-6.019-6.347-12.065-9.54-18.089-.147-.279-.508-.443-.863-.738-.252.404-.514.677-.602 1-3.367 12.169-13.529 18.707-26.174 18.991-13.059.295-24.66-4.466-35.549-11.168-10.479-6.451-19.461-14.618-27.065-24.272-.913-1.159-1.875-1.793-3.225-2.154-44.302-11.895-86.405-29.115-126.076-52.162-12.491-7.26-24.578-15.142-35.856-24.206-.563-.448-1.202-.804-1.809-1.197-1.689-.356-2.881-1.487-4.1-2.58-3.449-3.105-3.673-3.051-5.242 1.41-3.625 10.293-7.173 20.62-10.529 31.006-6.631 20.522-12.65 41.218-17.86 62.139-9.353 37.545-16.58 75.494-21.281 113.913-1.6455 13.442-3.0065 26.917-4.1053 40.409-.7599 9.315-1.3502 18.663-1.2682 28.033.0219 2.35-.0002 4.739-1.3122 6.855h-6.0132c.738-16.52 1.7821-33.029 3.3128-49.489 2.449-26.338 6.0681-52.523 10.7092-78.577C106.475 428.907 116.813 387 129.79 345.744c4.177-13.273 8.397-26.557 13.738-39.415 2.968-7.139 5.516-14.431 8.566-21.532.825-1.919.432-2.635-1.411-3.384-8.117-3.324-14.371-8.561-16.776-17.379-1.362-4.985-1.487-10.042-.071-15.06.639-2.269 1.235-4.576 2.164-6.724 1.739-4.012 3.406-7.626.793-12.251-1.815-3.203-.673-7.33.147-10.977.367-1.623.372-2.93-.552-4.367-.907-1.416-1.06-3.089-.738-4.751.378-1.924 1.455-3.876 3.368-3.777 3.444.186 2.99-1.689 2.689-3.789-.125-.902-.251-1.798-.35-2.706-.661-6.297.7-11.873 5.462-16.421 3.471-3.318 7.347-5.948 11.78-7.741 6.079-2.454 11.628-1.131 16.668 2.69 1.585 1.202 2.503 1.213 3.717-.459 2.274-3.144 5.308-5.489 8.741-7.271 1.35-.705 1.913-1.656 2.148-3.165 5.604-36.216 39.021-63.046 75.5-60.034 19.707 1.629 35.106 10.752 44.383 28.831 1.842 3.591 2.848 7.478 3.788 11.359.355 1.454.924 1.908 2.411 1.766 4.8-.465 9.61-.864 14.426-1.176 16.564-1.071 32.936.268 49.063 4.182 2.225.542 3.351.148 4.165-1.973.716-1.859 1.843-3.548 2.657-5.374 8.637-19.417 28.443-25.048 44.629-21.418 26.612 5.97 44.034 34.462 36.473 59.991-1.563 5.28-4.182 9.982-7.604 14.273-.382.82-.792 1.623-1.634 2.383.907-.333 1.356-1.022 2.061-1.29 4.193-3.477 8.818-5.297 14.268-3.422 5.849 2.017 8.014 6.762 8.795 12.376.225 1.602.487 3.439-.06 4.866-1.279 3.373.088 4.242 3.133 5.302 5.515 1.925 9.457 6.046 12.141 11.223 1.962 3.789 2.432 7.779.792 11.846-.366.919-.65 1.618.749 1.908 3.898.82 6.539 3.482 8.845 6.462 3.608 4.652 5.489 10.069 6.068 15.836.673 6.73-3.105 11.147-8.473 14.416-3.969 2.421-8.49 3.138-13.021 3.668-5.079.596-10.146.973-15.039-1.088-.541-.23-1.143-.733-1.7.005-.596.793-.049 1.329.421 1.903 7.872 9.588 9.966 20.893 9.266 32.81-.919 15.586-6.276 29.826-14.301 43.088-8.856 14.634-20.308 26.792-35.057 35.675-5.253 3.165-10.846 5.592-16.826 7.008-1.864.443-2.378.946-1.356 2.854 2.143 4.001 4.007 8.15 5.992 12.234 3.11 7.003 6.57 13.83 9.916 20.718l-.017-.027c.848 3.116 2.094 6.051 3.882 8.752 7.62 16.11 13.934 32.734 19.822 49.538 10.26 29.29 17.946 59.225 22.833 89.871.684 4.291 1.586 8.572 1.488 12.956-3.073-.011-6.172-.011-9.272-.011Z"/>
    <path fill="#938E8F" d="M335.749 599.552H220.426c-1.137-.574-1.64-1.651-2.186-2.706-12.513-24.206-22.96-49.298-32.1-74.947-1.372-3.854-2.81-7.692-4.024-11.6-.885-2.87-.328-3.603 2.696-3.745 27.081-1.268 53.823-4.898 80.079-11.731 9.605-2.499 19.106-5.39 27.957-10.042 2.181-1.148 4.302-2.357 6.308-3.794 2.389-1.711 3.1-1.515 4.242 1.208 2.531 6.04 4.729 12.218 6.91 18.39 9.955 28.169 18.22 56.808 23.911 86.158.678 3.483 1.339 6.965 1.875 10.474.136.815.279 1.635-.345 2.335Z"/>
    <path fill="#020203" d="M335.75 599.552c-6.505-37.162-24.659-100.777-34.16-119.445-3.822 3.132-8.08 5.466-12.546 7.396-14.186 6.133-29.115 9.703-44.209 12.677-20.024 3.941-40.239 6.368-60.635 7.128-2.744.104-1.81 1.427-1.361 2.772 6.696 20.122 14.437 39.84 23.02 59.236 4.531 10.233 9.369 20.325 14.562 30.241h-6.559c-1.23-.634-1.673-1.859-2.258-2.979-3.592-6.834-6.675-13.913-10.151-20.806-1.214-2.717-2.521-5.407-3.658-8.151-.814-1.973-1.694-1.951-3.198-.858-3.362 2.443-6.833 4.729-10.244 7.112-2.411 1.755-4.849 3.466-7.407 4.996-3.636 2.165-7.32 2.318-11.054.214-1.049-.591-1.962-1.285-2.318-2.504-3.525-5.122-3.646-9.168-.404-13.541 1.612.525.815 2.028 1.246 3.029 2.411 1.727 5.199 2.853 7.44 4.854.798.711 1.711.208 2.515-.273 6.232-3.718 12.289-7.686 18.089-12.043 1.06-.798 1.246-1.657.738-2.821-1.011-2.329-1.788-4.745-2.63-7.134-.103-.224-.196-.454-.284-.678-.279-1.361-1.153-1.875-2.487-1.76-.366-.268-.476-.64-.454-1.071.361-1.411-.071-2.701-.585-3.975-4.542-11.206-8.303-22.697-12.458-34.04-3.81-10.403-6.762-21.112-9.643-31.816-5.489-20.374-9.709-41.021-12.95-61.865-.175-1.11-.476-2.105-1.198-2.963-1.437-3.012-.41-5.909.771-8.599 3.007-6.877 8.79-10.96 15.257-14.126 11.256-5.504 23.321-7.625 35.735-8.309 15.832-.869 31.357.793 46.477 5.582 10.649 3.373 20.68 7.91 28.35 16.454 2.132 2.378 3.87 5.002 4.772 8.107.148.514.427 1.11.296 1.569-1.881 6.45 1.399 11.791 3.728 17.313 1.41 3.34 3.039 6.581 4.575 9.867 1.044 3.662 3.138 6.86 4.642 10.321 2.082 4.778 4.176 9.555 6.302 14.317.427.956.684 2.099 1.859 2.536.793 1.23-.262 2.805.76 3.991.208.579.437 1.148.7 1.7.869 2.099 1.662 4.226 2.613 6.292.508 1.11 1.191 1.618 2.328.88 12.568-8.129 26.246-14.623 37.086-25.294 2.722-2.684 4.647-5.855 5.98-9.331.82-2.127 1.575-4.029 3.86-4.92.607-.235.869-.902 1.159-1.476.432-1.241 1.585-1.23 2.58-1.493 2.269-1.246 4.373-1.481 6.051.962-.743 1.329.46 2.067.935 3.029.667 1.536.738 3.176.831 4.8.082 1.41-.038 2.76-1.87 3.11-1.481.284-1.273 1.531-1.361 2.602-.3 3.646.788 7.211.58 10.851-.077 1.345.191 2.739-.552 3.991-.334.355-.755.366-1.192.29-1.913-.831-.979-2.892-2.012-4.663-.328 5.319.733 10.08.902 14.913.224-3.34-.421-6.719.88-9.95 1.34.017 2.723-.464 3.98.389.344.355.509.792.601 1.268.088 1.388.241 2.793-.858 3.914-.443.476-1.618.465-1.235 1.481.995 2.624.038 5.451.935 8.069.235 2.963.295 5.942.885 8.867.787 1.651 1.071 3.389.929 5.204-1.339 1.301-1.208 2.946-1 4.57.705 5.467.771 10.988 1.514 16.455-1.776 1.858-2.547.442-3.313-1.006.263-3.483-1.235-6.615-2.011-9.851-.388.995.055 1.848.361 2.717 1.41 1.602 1.219 3.641 1.47 5.543.115.875-.027 1.788.678 2.487.481 1.301-.306 1.722-1.339 1.624-1.088-.099-1.755.131-1.908 1.29-.738 3.28.065 6.543.322 9.758.405 5.084.465 10.162.372 15.235-.191 10.562 1.235 21.008 2.006 31.499.498 6.784 1.077 13.562 1.285 20.363.044 1.344.159 2.749-.836 3.892h-5.467c-1.372-2.783-1.416-5.811-1.372-8.774.131-8.643-.498-17.264-.733-25.895-.415-15.077-1.279-30.138-1.509-45.22-.043-2.924.553-5.592 2.297-7.959 2.465-2.646 1.825-5.707 1.12-8.741-1.607-6.899-1.913-13.781.044-20.664.235-.825.47-1.716-.17-2.329-2.542-2.41-2.312-5.647-2.542-8.659-.224-2.985-.098-6.002-.071-9.003.011-1.389.219-2.728 1.072-3.882.825-1.126 1.235-2.235.098-3.422-1.203-1.257-2.296-.59-3.384.175-13.016 8.774-25.873 17.778-38.736 26.776-5.811 4.061-5.723 4.182-2.427 11.961 6.565 17.64 12.223 35.565 17.16 53.72 4.324 15.875 7.707 31.963 10.539 48.166.219 1.235.596 2.493.038 3.744-2.203-.01-4.389-.01-6.576-.01Z"/>
    <path fill="#5377BA" d="M90.8896 599.552c.8966-16.236 1.4486-32.488 3.0339-48.691 1.8368-18.723 3.9906-37.402 6.9265-55.983 5.33-33.68 12.316-67.021 21.199-99.957 7.386-27.393 15.957-54.414 25.584-81.102.667-1.842 1.18-2.422 2.815-.82 1.935 1.897 4.078 3.586 6.134 5.368-1.662 1.684-2.067 3.963-2.936 6.035-3.865 9.217-6.254 18.893-8.976 28.47-2.4 8.451-5.505 16.739-7.342 25.299-2.252 10.507-4.81 20.948-6.997 31.472-1.979 9.55-2.733 19.291-4.269 28.918-1.362 8.539-2.51 17.127-3.882 25.677-.699 4.362-.798 8.812-1.241 13.218-.65 6.461-1.399 12.917-2.055 19.379-.618 6.111-1.142 12.228-1.766 18.34-.656 6.462-1.41 12.918-2.066 19.379-.618 6.112-1.241 12.218-1.733 18.341-.831 10.375-1.219 20.773-1.804 31.159-.29 5.172-.186 10.332-.399 15.493-6.74.005-13.4806.005-20.2264.005Z"/>
    <path fill="#6B8DC8" d="M342.31 599.552c-.88-4.401-1.864-8.785-2.624-13.202-2.531-14.793-6.194-29.318-10.168-43.771-4.45-16.176-9.681-32.1-15.438-47.855-.12-.333-.136-.7-.207-1.049-.213-1.181.536-1.892 1.339-2.482 8.648-6.347 17.247-12.754 25.983-18.986 2.23-1.59 3.783-1.115 5.133 1.23.683 1.192.787 2.389-.088 3.57-1.328 1.793-1.563 3.794-1.197 5.959.443 2.613.186 5.258.224 7.893.033 2.417.345 4.691 2.209 6.511 1.274 1.246 1.191 2.832.497 4.308-.853 1.815-.858 3.624-.656 5.576.361 3.422.082 6.882.585 10.326.328 2.269 1.17 4.384 1.493 6.636.262 1.832.568 3.745-.717 5.237-3.454 4.024-3.077 8.763-2.689 13.487.596 7.232.995 14.48 1.53 21.713.574 7.779.75 15.585 1.471 23.353.301 3.253-.098 6.544.476 9.791.114.65-.159 1.252-.596 1.755h-6.56Z"/>
    <path fill="#5072B7" d="M348.869 599.552c-.552-10.119-1.066-20.238-1.673-30.351-.476-7.85-.929-15.705-1.684-23.528-.289-2.99-.393-5.959-.481-8.944-.065-2.17.323-4.313 1.832-5.827 2.799-2.81 2.236-6.002 1.23-9.107-1.023-3.16-1.274-6.347-1.411-9.594-.093-2.258.213-4.516-.443-6.768-.393-1.35.285-2.662.974-3.859.858-1.503 1.038-2.87-.624-4.002-1.027-.699-1.558-1.7-1.678-2.968-.508-5.292-.743-10.583-.454-15.897.033-.645.131-1.306.667-1.733 2.149-1.711 1.028-2.952-.486-4.291-.689-.612-1.001-1.306-2.11-.487-9.184 6.768-18.423 13.47-27.629 20.21-.421.307-.677.837-1.011 1.263-.196-.388-.459-.76-.585-1.17-.749-2.372-2.946-4.914-2.083-6.986.799-1.919 3.69-2.996 5.697-4.379 12.671-8.746 25.348-17.471 38.031-26.207 1.448.864 2.219 2.575 2.323 3.827.394 4.811 2.564 9.807-.782 14.421-.732 1.006-.481 1.87.295 2.673 1.138 1.17 1.608 2.635 1.783 4.182.481 4.231 1.64 8.643.688 12.693-.989 4.204-.924 7.807.766 11.704.967 2.231.672 4.822.453 7.271-2.022 2.761-2.498 5.827-2.372 9.228.875 23.85 1.618 47.706 2.422 71.563.076 2.356.256 4.707.388 7.063h-12.043Z"/>
    <path fill="#323131" d="M366.357 599.551c-.044-10.752-1.213-21.429-2.061-32.127-.486-6.199-1.301-12.387-1.235-18.641.098-9.042.213-18.083-1.017-27.087-.186-1.35-.514-2.941.995-3.958 3.099.055 6.013-.699 8.806-2 1.755.612 1.772 2.159 1.854 3.591.595 10.78.962 21.571 1.142 32.373.055 3.351.388 6.697.563 10.048-.842-14.295-.809-28.629-1.694-42.924-.11-1.716-.586-3.394-1.318-4.974-.159-.279-.262-.574-.312-.891.104-.963 0-2.149 1.198-2.433.978-.235 1.618.651 2.23 1.296 1.87 1.973 2.772 4.362 2.876 7.062.585 13.962.792 27.929 1.59 41.88.279 4.887.268 9.796.41 14.689.213 7.347.755 14.683.727 22.041-.005.733-.022 1.46-.535 2.061-4.745-.006-9.479-.006-14.219-.006Z"/>
    <path fill="#5072B7" d="M163.579 576.57c5.095 4.209 9.294 4.384 14.815.629 1.941-1.318 3.914-2.597 5.871-3.898 1.52.011 1.471 1.323 1.766 2.247.951 2.99 1.618 6.068 2.804 8.987.208.82-.344 1.268-.842 1.744-5.51 4.012-10.949 8.118-16.53 12.043-.76.535-1.706.628-2.417 1.224h-17.487c-4.062-5.958-2.444-12.808 3.64-16.613 2.963-1.848 5.598-4.22 8.38-6.363Z"/>
    <path fill="#5377BA" d="M187.633 585.88c.366-.356.732-.711 1.099-1.061.147-.995.913-1.52 1.629-2.066 3.017-2.302 6.248-4.313 9.189-6.713.678-.552 1.421-1.225 2.422-.552 3.968 8.025 7.932 16.044 11.9 24.069h-21.86c-.558-.333-1.033-.743-1.187-1.405-.945-4.127-2.471-8.09-3.192-12.272Z"/>
    <path fill="#6B8DC8" d="M187.632 585.88c2.301 3.635 2.525 7.932 3.81 11.89.191.59.377 1.186.563 1.776h-22.954c3.482-3.383 7.866-5.576 11.545-8.713 2.171-1.848 4.679-3.313 7.036-4.953Z"/>
    <path fill="#0D0E13" d="M380.571 599.551c.284-8.702-.476-17.378-.678-26.07-.241-10.299-.618-20.609-1.088-30.902-.372-8.124-.268-16.269-.951-24.381.53-.432-.022-1.241.568-1.657.503.388.465.951.47 1.487.066 4.625.301 9.239.487 13.858.546 13.677.836 27.36 1.279 41.038.29 8.872.667 17.744 1.006 26.617-.366.01-.733.01-1.093.01Z"/>
    <path fill="#5377BA" d="M150.514 410.473c1.623.366 1.651 1.744 1.875 2.985 2.476 13.683 4.728 27.404 7.855 40.961 4.007 17.378 8.692 34.571 14.405 51.457 4.138 12.24 8.899 24.272 13.404 36.391.442 1.192 1.137 2.345-.416 3.247-2.624 2.75-5.483 5.134-9.277 6.096-4.225-15.241-7.554-30.695-11.211-46.073-4.636-19.488-8.741-39.102-12.142-58.848-1.53-8.872-3.34-17.733-3.498-26.813-.06-3.138-.651-6.271-.995-9.403Z"/>
    <path fill="#030304" d="M316.616 455.983c-2.569-3.614-4.341-7.413-3.887-12.076.618-6.341 5.56-11.627 12.442-12.906 5.811-1.077 12.415 2.421 15 7.954.257.546 1.378.306 1.17 1.273-1.454 1.536-2.913 3.056-5.138 3.45-.421-.126-.662-.41-.711-.848.853-1.596.383-2.859-.804-4.132-3.46-3.718-9.009-4.396-13.13-1.509-4.149 2.903-5.549 8.314-3.357 12.781.623 1.273 1.432 2.296 2.815 2.782.361.208.629.492.678.929-1.098 1.608-2.487 2.794-4.477 3.127-.421-.109-.743-.3-.601-.825Z"/>
    <path fill="#08090E" d="M378.415 516.547c-.071.59.061 1.257-.568 1.656-.24-2.219-1.006-4.247-2.465-5.942-1.143-1.328-2.335-2.104-2.925.465-.815-.552-.722-1.438-.831-2.252.022-1.301-1.011-2.176-1.367-3.329-.098-.274-.158-.553-.202-.842-.109-1.044-.125-2.083-.043-3.127 1.929-5.686.694-11.546.962-17.313-.082-.257-.17-.519-.274-.771-.197-.874-.973-1.153-1.623-1.58-.219-.191-.372-.426-.476-.694-.372-1.312-.262-2.64-.18-3.969.065-.459.213-.891.475-1.279.946-.738 1.044-1.755 1.039-2.859-.011-2.394-.011-4.788-.011-7.183.022-2.176.241-4.362-.208-6.522-.568-1.333-2.132-1.804-2.717-3.126-.333-.963-.3-1.968-.317-2.963.049-1.356-.027-2.723.077-4.078.054-.716.071-1.717.847-1.837.957-.148.875.913 1.055 1.569.093.344.055.721.733 1.585.825-3.887.934-7.281.109-10.72-.508-.689-1.06-1.345-1.711-1.902-.459 0-.951-1.914-1.372.032-.591-.912-1.875-1.82-.033-2.76 1.902-.35 2.515.164 3.772 2.132 2.526 3.941 1.093 7.833 1.645 11.682.214 1.498-.421 2.804-1.738 3.75-1.645 1.181-1.596 2.509-.022 3.69 1.198.896 1.717 2.066 1.777 3.488.169 4.165.312 8.331.47 12.496.066 1.679-.235 3.176-1.432 4.516-1.066 1.191-1.236 2.585.207 3.728 1.334 1.055 1.744 2.482 1.777 4.083.098 4.357.208 8.709.284 13.066.011.535.017 1.159-.229 1.607-2.334 4.247-.498 7.325 2.673 10.14 1.585 1.405 2.777 3.111 2.842 5.363Z"/>
    <path fill="#0F121B" d="M316.616 455.982c.186.181.372.367.558.547.262.897-.372 1.356-.957 1.739-3.542 2.328-6.899 4.919-10.48 7.188-.65.416-1.344 1.017-2.203.35-1.12.022-1.563-.771-1.94-1.629-3.592-8.118-7.019-16.312-10.988-24.261-.224-.443-.104-1.06-.142-1.596 4.291 7.866 7.702 16.137 11.174 24.375 1.055 2.499 1.803 2.581 3.853 1.001 3.581-2.744 7.408-5.161 11.125-7.714Z"/>
    <path fill="#0E1017" d="M178.355 551.61c3.094-2.034 6.188-4.067 9.277-6.095.18.18.361.355.541.535.077 1.389-1.148 1.7-1.968 2.291-5.942 4.269-12.026 8.342-18.023 12.535-1.837 1.284-3.559 2.487-3.553 5.04 0 .481-.263 1.093-1.034.896-.186-1.251.388-2.591-.415-3.777 2.919-3.526 7.156-5.33 10.643-8.107 1.46-1.17 3.018-2.214 4.532-3.318Z"/>
    <path fill="#0E1018" d="M341.205 440.119c-.344-.389-.689-.777-1.033-1.165 2.263-.109 3.608-1.886 5.264-3.017 4.133-2.81 8.271-3.351 12.59-.607.765.486 1.52.443 2.312.519-.716.525-1.432 1.05-2.154 1.569-4.646-3.247-8.976-2.219-13.251.853-1.104.798-2.061 2.099-3.728 1.848Z"/>
    <path fill="#fff" d="M271.807 257.256c.568-2.362 1.137-4.724 1.706-7.091.076-1.875.88-3.362 2.121-4.783 2.46-2.821 3.187-6.412 3.985-9.933.295-1.317.464-2.656.874-3.947 1.236-3.711 1.733-7.576 2.193-11.43.437-3.657-.842-6.97-2.657-10.064-4.691-7.987-12.355-11.387-20.91-13.328-5.734-1.301-11.524-1.323-17.335-.508-.727.147-1.601.683-1.76-.667 3.04-5.243 3.876-10.518.334-15.908-.629-.951-.613-1.705.732-2.247 21.549-8.708 43.443-16.427 66.452-20.166 27.962-4.537 55.716-3.936 82.753 5.636 19.893 7.041 36.659 18.477 49.019 35.817 3.477 4.882 6.5 10.064 8.955 15.553.628.776.169 1.148-.547 1.317-.727.17-1.432-.136-2.138-.273-5.953-1.186-10.736 1.787-12.562 7.631-1.268 4.051-.71 8.069-.207 12.114.131 1.061.524 2.16-.405 3.083-14.126 6.407-21.948 17.625-24.818 32.565-.356 1.848-.236 3.788-.339 5.685-.235 2.509-.077 5.078-1.083 7.473-4.111 7.997-11.556 11.857-19.324 15.071-7.921 3.275-15.563 6.992-22.719 11.704 7.823-4.28 16.356-6.888 24.496-10.414 5.384-2.334 10.239-5.472 14.579-9.413.798-.727 1.432-1.662 2.547-1.99 1.739.514 1.772 2.176 2.214 3.477 2.898 8.544 8.184 15.088 16.072 19.526 1.755.99 3.646 1.624 5.511 2.357.77.306 2.126.273 1.721 1.793-2.607 1.011-5.395.683-8.068.874-9.457.678-18.745 2.493-28.12 3.685-5.161.656-10.354.311-15.536.202-1.28-.027-2.537-.41-3.182-1.744-.563-1.153-1.301-.989-2.203-.361-3.138 2.176-3.362 5.041-.033 6.916 6.358 3.591 10.392 9.129 14.317 15.011 7.036 10.539 16.362 18.264 28.979 21.249 5.242 1.24 10.545 1.536 15.885-.028 4.658-1.361 9.07-3.285 13.459-5.248 5.051-2.257 6.303-6.915 6.839-11.895.721-6.675.596-13.426 1.684-20.068.579-3.526.513-7.331 4.406-9.9-1.804-.29-2.848.782-4.078.667-.875-.055-2.083.148-2.258-.935-.153-.913 1.017-1.208 1.738-1.448 2.941-.979 5.084-3.537 8.217-4.111.251.065.486.18.716.317.557.328.989 1.339 1.733.754.634-.503.049-1.301-.137-1.957-.148-.514-.246-1.022-.066-1.547 2.761-3.57 5.626-7.068 7.457-11.261.339-.776.88-2.094 2.105-.689 5.056 11.026 4.668 22.572 1.962 33.86-6.079 25.354-20.09 45.52-41.765 60.204-6.576 4.455-14.213 5.904-21.877 6.871-4.849.612-9.742 1.356-14.678.995-7.598-.557-15.186-1.241-22.79-1.662-4.177-.235-8.298-.803-12.426-1.377-1-.142-2.279-.208-2.46.984-.169 1.099.941 1.541 1.996 1.623-.115 1.449-1.301 1.219-2.187 1.301-1.667.148-3.351-.016-5.024.132-5.472.12-10.938.087-16.367-.777-9.867-1.64-19.444-4.45-29.027-7.216-27.322-7.899-53.786-18.078-79.452-30.323-1.552-.743-3.05-1.607-4.57-2.411-6.762-4.007-12.792-9.036-18.586-14.251-7.796-7.014-16.64-12.699-24.425-19.658-8.714-7.79-18.663-13.885-27.716-21.188-.907-.733-2.011-1.334-2-2.744.147-.99.475-1.914 1.038-2.745.646-2.236 1.93-2.706 4.259-2.219 8.265 1.727 16.443 1.634 24.354-1.881 2.503-1.115 2.93-.694 2.984 2.094.099 4.98 2.307 8.96 6.238 11.879 8.041 5.964 18.859 5.133 26.611-1.777 5.767-5.138 9.67-11.277 10.95-18.985.251-1.504.929-2.925 1.131-4.455-.044-.17-.011-.318.11-.443.902-1.449 2.121-.547 3.187-.367 6.587 1.105 13.169 1.804 19.679-.338 9.436-3.111 15.569-9.108 16.804-19.358.126-.984.257-1.989.733-2.891Z"/>
    <path fill="#E52622" d="M141.243 223.932c.509-2.865-.339-6.118 3.258-7.96 1.329-.683.684-2.476-.847-3.198-.547-.257-1.23-.224-1.859-.306-1.109-.147-1.142-.989-1.18-1.826-.055-1.263.907-.847 1.53-.874 3.685-.164 3.903-.438 3.974-4.128.077-4.149-1.268-8.287-.065-12.436.202-.689.246-1.476.612-2.056 4.056-6.314 9.709-10.413 17.105-11.906 2.301-.465 4.494.224 6.396 1.667-.208 1.373-1.525 1.045-2.323 1.487-1.761.979-3.297 2.029-2.761 4.423.208.946-.142 1.782-.607 2.591-.377.651-.65 1.361-.082 2.028.645.755 1.476.618 2.258.263.814-.372 1.711-.613 2.356-1.285-1.842-3.433-1.651-4.16 1.809-6.456.635-.421.913-1.132 1.509-1.553.864.498 1.706 1.039 2.591 1.493 2.859 1.443 4.866 1.175 6.653-1.482 9.135-13.551 34.451-19.264 50.315-5.51 3.487 3.023 6.828 6.276 6.144 11.436-.535 4.051-2.372 7.402-6.5 9.003-1.175.46-2.197 1.209-1.743 2.646.431 1.378 1.596 1.465 2.897 1.269 6.718-1.001 13.377-2.542 20.27-1.941 5.789.508 11.524 1.64 16.192 4.991 4.351 3.121 6.625 8.091 7.467 13.42.766 4.871.011 9.594-2.471 13.951-1.06 1.87-2.41 2.936-4.826 2.733-3.084-.256-4.221 1.712-2.799 4.581 2.766 5.593 2.837 11.114-.154 16.63-1.284 2.126-3.159 2.706-5.581 2.427-4.51-.525-9.02-1.071-13.48-1.919-5.057-.962-10.097-1.011-15.159-.208-1.81-.798-3.488-1.858-5.259-2.749-1.421-.716-2.46-2.045-2.581-3.657-.202-2.684-.978-5.38-.038-8.096.541-1.569.399-3.187-.863-4.303-1.837-1.623-2.81-3.46-2.564-5.942.06-.596-.12-1.268-.574-1.913.404 1.951-.213 3.4-1.728 4.521-1.279.946-.924 1.815.252 2.536.617.383 1.312.634 1.902 1.072 1.23.913 2.176 2.006 1.81 3.668-.399 1.798-1.635 2.76-3.401 3.11-2.115.416-3.925-.393-5.991-1.645.967 1.656 2.378 2.11 3.592 2.832 2.356 1.399 4.69 2.804 5.575 5.685 1.143 3.695-.492 6.713-4.274 7.292-2.865.443-5.751.842-8.687.738-3.783-.136-6.735-1.498-8.26-5.133-.765-1.826-1.831-2.739-3.22-.798-2.886 4.034-6.97 3.903-11.217 3.766-2.34-.076-4.242-.776-5.828-2.47-.809-.864-1.585-1.788-2.536-2.471-1.957-1.422-2.87-2.98-2.072-5.554.602-1.936-.634-3.483-2.362-4.472-1.53-.875-3.23-1.175-4.947-1.449-2.591-.41-2.908-1.022-1.383-3.105 1.099-1.498 1.514-3.072 1.34-4.854-.148-1.525-.793-2.553-2.477-1.76-1.416.667-2.443.229-3.433-.722-1.186-1.137-2.613-1.596-4.231-1.563-1.285.027-2.542-.148-3.766-.547-1.4-.459-2.663-.148-3.909.579-2.886 1.684-3.805 1.411-4.909-1.809-.733-2.132-1.684-3.427-4.138-2.454-.279-.006-.525-.115-.722-.328Z"/>
    <path fill="#938F8F" d="M259.163 114.315c14.043-.371 26.179 4.587 36.615 13.722 5.751 5.034 9.135 11.736 11.584 18.87 1.191 3.477.869 3.674-2.684 4.51-12.819 3.023-25.939 4.794-38.447 9.151-9.812 3.417-19.395 7.369-28.475 12.437-1.46.814-2.482.869-3.882-.241-10.309-8.134-21.997-9.916-34.548-7.03-2.247.514-2.439.131-1.979-1.968 5.614-25.474 28.88-46.46 54.994-49.423 2.246-.246 4.548-.028 6.822-.028Z"/>
    <path fill="#7F7575" d="M421.412 128.999c15.279.743 26.95 8.024 34.789 21.221 6.051 10.184 8.315 21.216 4.182 32.674-1.793 4.974-4.619 9.632-9.315 12.737-1.908 1.263-3.127.749-4.264-1.006-2.925-4.521-6.281-8.801-10.174-12.442-8.566-8.02-17.64-15.454-28.765-19.871-4.903-1.946-9.829-3.865-14.584-6.145-3.554-1.7-4.117-3.75-2.504-6.948 6.336-12.567 16.23-19.482 30.635-20.22Z"/>
    <path fill="#F7A715" d="M413.286 265.866c.695-6.265 3.215-11.666 7.67-16.148 1.197.612 1.668 2.197 3.209 2.367 1.76.191 3.307-.268 4.302-1.744.973-1.449.645-2.936-.399-4.286-.383-.492-.973-.836-1.099-1.514 1.799-1.471 3.811-2.526 6.052-3.155.186 3.745 2.361 4.877 5.887 5.582 5.336 1.06 10.699 1.705 16.078 2.329 3.006.349 5.947.043 8.823-.908 15.148 13.196 13.054 37.862-4.04 47.614-1.367.755-2.772.585-4.215.219-13.212-3.335-24.944-9.386-34.811-18.871-1.902-1.826-4.095-3.324-5.866-5.292-.727-.809-1.601-1.503-1.776-2.673.071-1.175-.192-2.367.185-3.52Z"/>
    <path fill="#8B2A29" d="M181.63 278.958c-2.749 1.383-5.439 2.383-8.757 1.962-4.199-.535-8.495-.12-12.677-1.235-6.216-1.657-11.83-4.357-16.815-8.495-4.117-3.422-5.139-7.965-5.549-12.89-.503-6.068 1.05-11.65 3.81-16.969 1.58.607 1.624 2.236 2.313 3.439 1.405 3.537 2.345 7.281 4.449 10.507 2.029 3.099 4.002 6.231 6.976 8.62 4.198 3.368 9.129 4.297 14.24 4.488 1.892.072 3.799.181 5.702.197 2.935.033 5.817-.109 8.566-1.252 2.662-1.109 5.406-.945 8.014-.098 6.784 2.209 13.88 2.695 20.828 4.012 2.487.471 5.007.738 7.511 1.099 2.493.356 4.936.602 7.352-.328-.71 9.578-5.827 16.345-13.66 21.386-6.462-.919-12.885-2.078-19.303-3.253-3.761-2.788-3.056-6.658-2.548-10.48.121-.874.263-1.749.4-2.623-.482-1.23-1.044-2.411-2.695-1.859-2.854.951-5.839 1.651-8.157 3.772Z"/>
    <path fill="#992423" d="M489.875 244.694c-1 1.274-1.793 2.657-.563 4.138 1.23 1.481 2.602.623 3.925-.055 4.647-2.372 7.353-1.76 10.622 2.373.951 1.203 2.033 2.323 2.449 3.865.814 1.733-.399 2.285-1.657 2.717-3.443 1.186-7.03 1.804-10.594 2.509-3.81.754-7.713.973-11.288 2.886-1.717.919-2.608 2.668-4.357 3.406-.864-4.259-1.744-8.484-3.707-12.453-2.481-5.018-6.008-9.075-10.452-12.365-1.082-.804-1.935-1.668-2.104-3.002-1.154-9.145-3.816-17.892-7.101-26.463-.531-1.383-.345-2.712-.022-3.991.557-2.214 2.492-2.81 4.225-1.257 1.214 1.088 1.7.251 1.974-.58.617-1.875 2.082-2.913 3.471-4.083.749-.629 1.558-.853 2.504-.875 3.936-.087 5.614 2.925 7.544 5.521 1.58 2.121 1.044 4.313-.23 6.369-1.394 2.258-2.465 4.275.016 6.718 1.072 1.05 1.897 1.908 3.368 1.711 5.291-.721 9.392 1.23 12.54 5.418.306.924-.355 1.519-.76 2.197-2.569 4.27-2.995 8.599-.426 13.044.393.677.968 1.35.623 2.252Z"/>
    <path fill="#B53635" d="M141.778 223.997c2.504-1.711 3.98-1.235 4.739 1.634.236.886.411 1.766.914 2.537.634.968 1.208 1.427 2.328.372 1.782-1.684 3.892-2.231 6.243-1.023 1.022.525 2.154.29 3.231.274 1.224-.022 2.422.12 3.335.94 1.295 1.164 2.213 2.69 4.334.891.941-.798 2.449.262 2.597 1.569.262 2.312.601 4.761-1.492 6.615-.443.393-1.17.809-.853 1.541.317.738 1.121.355 1.711.454 3.225.541 6.626.793 7.954 4.592.202.585.541 1.399.3 1.815-1.519 2.629.514 3.673 1.794 5.51 3.744 5.379 9.058 4.679 14.262 4.335 2.378-.159 2.892-3.302 5.046-4.209.617-.263 1.066-.924 1.683-1.487.35.618.684 1.06.869 1.552 2.384 6.227 4.898 7.112 13.53 6.205.809-.088 1.618-.202 2.427-.273 2.138-.197 4.155-.525 4.953-2.996.831-2.569-.011-4.723-1.804-6.423-1.295-1.23-2.782-2.367-4.537-2.963-2.012-.689-3.018-2.154-3.526-4.133.995-.585 1.323.334 1.848.694 1.366.941 2.76 1.711 4.521 1.629 1.82-.082 3.236-.749 3.739-2.574.53-1.93-.908-2.767-2.291-3.537-.711-.394-1.574-.569-2.181-1.066-1.077-.891-1.41-2.335-.033-2.909 2.936-1.219 2.706-3.187 1.558-5.772 2.351 1.006 2.93 2.678 2.668 4.542-.208 1.449.093 2.34 1.274 3.22 2.29 1.711 2.902 3.903 1.935 6.741-.891 2.607-.121 5.34.35 7.959.267 1.47 1.541 2.624 3.006 2.903 1.673.317 2.739 1.23 3.712 2.449.159.262.186.536.082.82-.284.59-.738 1.055-1.29 1.377-2.848 1.679-4.712 4.171-6.237 7.052-1.651 3.122-2.947 3.39-6.495 2.783-4.001-.684-8.014-1.35-12.07-1.689-3.356-.279-6.642-1.252-9.747-2.389-5.51-2.018-10.835-1.318-16.35-.334-5.636 1.006-11.409.858-16.996-.229-3.056-.596-5.773-2.488-7.768-5.205-3.16-4.302-5.013-9.26-7.347-13.967-1.055-2.126-3.067-4.001-2.165-6.767.836-.678 2.537-.487 2.121-2.406-.47-2.164-2.154-2-3.706-2.197-1.247-.984-1.662-2.449-2.253-3.821-.284-1.564-.535-3.105.077-4.636Z"/>
    <path fill="#D1D1D1" d="M231.311 280.642c.284 12.436-9.25 25.704-20.992 29.18-10.294 3.051-22.774-2.782-24.665-13.846-.235-1.383.3-2.646.158-4.221-3.406 1.176-6.483 2.69-9.883 3.242-5.62.908-11.218.815-16.75-.415-1.913-.427-3.395-.492-4.401 1.416 1.356-3.554 2.673-7.123 4.084-10.655.656-1.645 2.066-.798 3.088-.59 6.735 1.366 13.383 1.268 19.926-.984 1.706-.585 3.373-1.279 5.456-2.072-.367 3.389.076 6.429 1.689 9.249 4.734 8.304 15.705 11.983 25.02 8.069 7.544-3.171 12.809-8.807 16.225-16.192.334-.732.695-1.454 1.045-2.181Z"/>
    <path fill="#938F8F" d="M153.739 298.742c2.378 2.536 5.101 4.706 8.009 6.538 9.966 6.292 18.472 14.448 27.869 21.456 12.688 9.463 24.255 20.287 36.85 29.848-5.658-2.269-10.933-5.303-16.285-8.167-18.319-9.802-35.872-20.79-52.058-33.866-2.264-1.826-4.373-3.837-6.615-5.691-.885-.732-1.263-1.388-.771-2.542 1.061-2.498 2.006-5.051 3.001-7.576Z"/>
    <path fill="#8C8C8C" d="M431.311 315.557c-2.728-1.208-5.603-2.039-8.211-3.554-8.074-4.69-13.273-11.605-16.11-20.412-.289-.896-.136-2.044-1.235-2.569-.443-.716.229-1.104.47-1.624.831-1.159.864-2.225-.377-3.132-.06-.109-.115-.219-.17-.328.405-2.569.656-5.166 1.575-7.631 2.7 17.547 16.749 30.088 34.439 30.388 6.123.104 12.06-1.317 17.565-4.165 1.711-.126 1.847 1.454 2.525 2.389.787 1.088 1.476 2.252 2.017 3.498.044.274-.016.52-.18.738-3.521 1.383-6.369 4.04-10.567 5.161 1.203.175 1.826.268 2.449.355-.366 1.274-1.471 1.197-2.427 1.241-6.691.301-13.394-.202-20.085.339-.639.049-1.257-.12-1.678-.694Z"/>
    <path fill="#CD6DA8" d="M333.033 403.159c-1.7-1.361-3.111-2.979-4.45-5.062 9.495 2.23 18.756 4.187 28.104 5.723 12.901 2.121 25.873 3.423 38.955 3.423 1.711 0 3.438-.164 5.138-.4 2.416-.333 4.313.569 6.281 1.892 2.225 1.492 2.908 3.023 1.361 5.313-.994.93-2.235 1.159-3.531 1.203-18.985.59-37.769-.836-56.093-6.139-5.384-1.563-10.703-3.444-15.765-5.953Z"/>
    <path fill="#938E8F" d="M432.414 238.057c-.328-4.401-1.246-8.73-.628-13.229.989-7.189 8.101-13.339 15.252-9.922.885.421 1.115.016 1.235-.716 3.012 6.816 5.275 13.874 6.68 21.194.339 1.776-1 1.137-1.705.962-7.145-1.782-14.039-.7-20.834 1.711Z"/>
    <path fill="#D1D1D1" d="M271.806 257.256c.777 14.033-10.954 22.905-22.735 24.069-5.554.547-10.977.077-16.361-1.263-.399-.098-.864.082-1.296.132.634-3.012 1.552-5.975 1.591-9.086.022-1.782.967-1.181 1.984-.946 5.538 1.291 11.147 1.788 16.799.946 8.938-1.317 15.738-5.783 20.018-13.852Z"/>
    <path fill="#CD6DA8" d="M357.643 422.019c-6.024-3.045-11.616-6.724-16.569-11.338 1.886-1.214 3.739-.23 5.499.235 8.802 2.329 17.707 4.116 26.743 5.117 9.835 1.087 19.685 2.192 29.613.984 1.41-.17 2.919-.361 4.203.623-1.41 2.968-3.225 5.603-6.15 7.298-11.392-.689-22.872.3-34.193-1.793-3.018-.558-6.052-1.137-9.146-1.126Z"/>
    <path fill="#8B2424" d="M507.941 258.863c.7.591.503 1.443.651 2.198-.667.831-1.788.765-2.597 1.317-1.476 1.001-2.723 2.22-2.542 4.122.186 1.968 1.394 3.203 3.356 3.717.667.175 1.744-.033 1.657 1.225-1.066 2.443-2.87 4.144-5.319 5.149-5.625 2.307-11.343 4.204-17.554 3.92-.229-.973.438-1.706.7-2.548 1.099-3.602-.546-6.308-4.225-6.893-.793-.126-1.629-.066-2.302-.64-1.06-1.831.372-2.908 1.372-3.946 2.007-2.094 4.62-3.215 7.446-3.614 6.193-.874 12.305-2.115 18.285-3.952.345-.11.706-.104 1.072-.055Z"/>
    <path fill="#BE8112" d="M455.522 298.233c-10.364 5.253-24.659 2.312-33.674-6.899-4.838-4.947-7.992-10.692-8.528-17.701 2.181-.043 3.308 1.717 4.653 2.92 3.465 3.083 7.122 5.92 10.708 8.85 6.708 5.483 14.738 8.123 22.752 10.857 1.433.486 3.073.601 4.089 1.973Z"/>
    <path fill="#F4D3E7" d="M407.132 417.646c-17.755 1.618-35.216-.252-52.594-3.947-4.499-.957-8.796-2.827-13.464-3.012-2.974-2.198-5.593-4.767-8.042-7.528 3.712.192 6.91 2.061 10.283 3.28 9.167 3.313 18.63 5.155 28.246 6.478 10.54 1.454 21.117 1.881 31.733 1.553 1.711-.055 3.423-.274 5.134-.416-.022 1.339-.755 2.433-1.296 3.592Z"/>
    <path fill="#FED27E" d="M463.81 248.383c-2.755 2.914-6.27 1.728-9.501 1.596-5.964-.24-11.792-1.568-17.663-2.58-3.4-.585-4.712-2.667-3.624-6.018 3.838-2.603 8.041-2.444 12.294-1.537 6.806 1.444 13.328 3.537 18.494 8.539Z"/>
    <path fill="#B03333" d="M145.534 237.035c2.618 6.609 5.625 13.038 9.326 19.111 2.296 3.767 5.543 5.882 10.184 6.341 6.631.662 13.082.52 19.636-.885 2.81-.602 5.942-.656 8.96.432 3.695 1.333 7.511 2.82 11.359 3.121 3.816.301 7.495 1.405 11.322 1.405.705 0 1.47.109 2.104.394 2.367 1.049 4.193.251 5.139-1.897 1.766-4.018 4.614-6.872 8.402-8.911 1.307.06 1.935.651 1.574 2.017-2.077 1.848-5.198 2.668-6.232 5.5-2.186 5.986-6.461 6.374-11.873 5.258-7.637-1.579-15.432-2.252-22.943-4.641-3.215-1.022-6.828-.852-10.217.153-5.642 1.679-11.376.919-17.045.454-5.893-.481-9.966-4.198-13.12-8.85-3.488-5.144-5.439-11.037-7.637-16.799-.202-.525-.208-1.066-.016-1.602.361-.208.722-.404 1.077-.601Z"/>
    <path fill="#928E8E" d="M339.521 396.539c5.462-.006 10.917-.006 16.378-.011 3.466.514 6.938.104 10.403.011 9.108 2.864 18.625 3.799 27.88 5.975.088.612-.295.765-.782.754-3.012-.071-6.029.241-9.036-.169-14.989-.738-29.744-3.182-44.405-6.254-.164-.038-.295-.202-.438-.306Z"/>
    <path fill="#F4D3E6" d="M357.644 422.019c.524-1.006 1.394-1.023 2.345-.837 11.266 2.236 22.653 2.919 34.117 2.63 2.334-.06 4.668.251 6.877 1.126-1.208 1.361-2.914 1.875-4.499 2.596-6.959.842-13.907 1.323-20.915.361-2.603-.355-5.128-1.022-7.708-1.427-3.63-.956-6.937-2.678-10.217-4.449Z"/>
    <path fill="#A93131" d="M144.462 237.625c1.886 4.483 3.624 9.031 5.696 13.426 2.99 6.336 7.003 11.907 14.557 12.945 5.062.695 10.3 1.498 15.351.175 5.406-1.416 10.616-1.427 15.929.284 7.44 2.395 15.268 2.81 22.905 4.199 3.985.727 5.013-.099 6.752-3.778 1.64-3.465 4.395-5.707 7.915-7.084.274-.17.541-.159.804.033.464.497.601 1.005.043 1.53-3.668 1.853-6.69 4.237-8.002 8.419-.635 2.022-2.422 2.82-4.554 2.771-6.385-.153-12.601-1.454-18.855-2.558-5.258-.929-10.271-3.116-15.754-2.925-1.924.066-3.805.203-5.658.711-6.511 1.788-12.983.864-19.423-.35-4.548-.858-7.347-4.335-10.02-7.593-4.319-5.264-6.21-11.846-8.834-18.012-.213-.498-.197-1.072.087-1.586.345-.207.7-.404 1.061-.607Z"/>
    <path fill="#A1302F" d="M143.385 238.226c2.641 6.139 4.641 12.601 8.55 18.106 3.865 5.444 8.664 9.02 15.946 9.298 5.483.214 10.731.099 16.105-1.088 3.29-.721 6.805-.311 10.227.591 8.998 2.361 18.095 4.237 27.432 4.701 2.356.12 3.597-.842 4.472-3.028 1.569-3.931 4.089-7.047 8.571-7.938.973-.224 1.591.153 1.864 1.11-.011.273-.098.525-.268.743-2.339.744-4.203 2.499-6.603 3.116-1.072.022-1.197.984-1.624 1.64-.492 1.028-.317 2.231-.847 3.253-2.225 4.133-6.019 2.974-9.446 2.651-8.419-.792-16.673-2.542-24.851-4.635-4.467-1.143-8.807-.296-13.191.573-6.172 1.225-12.404.591-18.33-1.033-6.205-1.7-9.96-6.745-13.005-12.146-2.186-3.882-3.739-8.069-5.499-12.153-.519-1.208-.607-2.438-.06-3.673.191-.033.371-.06.557-.088Z"/>
    <path fill="#922C2C" d="M227.599 272.005c-1.116 2.263-3.352 1.591-4.959 1.432-4.887-.486-9.725-1.443-14.584-2.181-6.588-1-13.12-2.285-19.571-3.98-1.673-.437-3.247.274-4.718.875-3.772 1.547-7.658 1.121-11.545.995-3.657-.12-7.227-.361-10.851-1.334-6.38-1.717-9.867-6.451-13.164-11.409-2.35-3.537-3.766-7.577-4.849-11.704 2.061.514 2.149 2.482 2.706 3.953 2.417 6.346 6.128 11.687 11.633 15.732 1.629 1.198 3.482 1.788 5.456 2.203 3.034.64 6.128.547 9.178.963 2.761.371 5.631.311 8.353-.547 5.308-1.673 10.529-1.077 15.788.301 8.418 2.208 16.974 3.619 25.671 4.171 2.077.131 3.745-.372 4.964-2.105.257-.208.535-.246.83-.109.082.945.35 1.907-.338 2.744Z"/>
    <path fill="#962D2D" d="M227.534 269.26c-.47 1.979-1.744 2.723-3.75 2.766-5.554.11-10.923-1.306-16.389-1.88-7.096-.738-13.721-4.056-21.03-3.641-4.16.235-8.063 2.17-12.316 1.678-4.117-.475-8.337-.47-12.35-1.394-4.969-1.148-8.024-5.187-11.189-8.883-2.952-3.449-3.958-7.883-6.008-11.786-.307-.579-.509-1.142-1.143-1.421-.574-1.126-1.148-2.252-1.716-3.384.18-1.088.366-2.176 1.191-3.012.203 4.034 2.531 7.32 3.969 10.895 2.367 5.882 5.838 11.015 11.146 14.776 2.171 1.536 4.614 2.225 7.074 2.449 6.38.58 12.71 1.175 19.122-.689 4.795-1.399 9.654.47 14.416 1.597 7.473 1.765 15.016 3.088 22.702 3.613 2.553.175 4.401-.574 5.675-2.761.519.192.896.449.596 1.077Z"/>
    <path fill="#912423" d="M507.942 258.863c-3.225 1.979-6.942 2.443-10.517 3.258-3.335.765-6.784 1.049-10.13 1.787-3.001.662-5.543 2.176-7.183 4.953-.339.574-.295.984-.071 1.498-.487.76-.984.984-1.514.038-.039-1.284-.082-2.569-.121-3.859 1.678-4.138 5.538-5.15 9.239-5.926 5.559-1.164 11.217-1.875 16.678-3.504 1.028-.306 2.193-.569 1.979-2.088.935 1.115 1.531 2.372 1.64 3.843Z"/>
    <path fill="#E4201B" d="M234.055 257.819c-.164 0-.328-.011-.487-.028-.333-.738-.896-1.262-1.596-1.651-.016-.185-.033-.371-.049-.557 4.936-1.788 9.955-1.115 14.924-.334 5.248.826 10.479 1.695 15.782 2.182 1.831.169 2.471-1.285 3.744-1.81-.59 1.842-2.186 2.919-3.312 4.357-1.662 1.104-3.477.82-5.292.596-4.783-.596-9.512-1.585-14.306-2.143-2.187-.252-4.34-.47-6.516-.093-1.039.186-2.001.033-2.892-.519Z"/>
    <path fill="#FEE792" d="M422.008 442.508c.022-1.001.076-1.996.59-2.903.547-.973 1.203-1.979 2.34-2.11 1.356-.153 1.356 1.273 1.755 2.082 1.738 3.505 3.34 7.069 5.067 10.578.858 1.744.197 2.089-1.427 1.853-4.378-.639-8.254-5.051-8.325-9.5Z"/>
    <path fill="#8A1913" d="M236.311 260.53c-.016-.202-.032-.41-.043-.612.951-1.263 2.361-1.339 3.711-1.241 6.528.481 12.962 1.629 19.412 2.69.536.087 1.039.322 1.422.749-4.745 3.668-10.289 4.537-16.017 4.127-2.1-.148-4.336.246-6.353-.743 2.69-1.69 5.735-.219 8.227-1.116-.519-.087-1.372-.333-1.978-.94-1.389-1.394-3.089-1.667-4.948-1.673-1.257 0-2.547-.131-3.433-1.241Z"/>
    <path fill="#8A1912" d="M478.525 270.392c.514.405 1.017.252 1.514-.038 2.81-.328 5.478.23 6.74 2.886 1.165 2.455.766 5.101-1.191 7.266-2.258-.203-4.434-.585-6.423-1.832-1.094-.683-1.662-1.503-1.252-2.657.65-1.847.404-3.75.612-5.625Z"/>
    <path fill="#8C8C8C" d="M475.125 294.385c-1.503-.771-1.361.71-1.667 1.328-1.979 3.969-4.237 7.725-7.621 10.687-.24.197-.492.225-.771.088-1.208-1.848-3.597-3.225-2.421-6.03 4.105-2.46 7.155-6.013 10.075-10.031.852 1.492 2.339 2.258 2.405 3.958Z"/>
    <path fill="#E29703" d="M413.403 269.78c5.067 4.652 10.26 9.145 15.634 13.459 5.849 4.695 12.448 7.696 19.445 9.987 3.679 1.203 7.237 3.001 11.283 2.772-.52.656-1.23.995-2.034 1.159-1.06.322-2.126.426-3.198.049-6.592-2.324-13.431-3.996-19.576-7.479-4.52-2.563-8.413-5.98-12.463-9.183-2.635-2.083-4.98-4.51-7.621-6.593-1.334-1.055-2.389-2.291-1.47-4.171Z"/>
    <path fill="#D38D0B" d="M413.402 269.78c-.126 1.126.005 2.148.957 2.946 7.385 6.183 14.158 13.3 22.877 17.575 6.445 3.16 13.383 5.418 20.495 6.855-.738.361-1.476.717-2.22 1.077-8.604-2.831-17.411-5.193-24.938-10.556-6.052-4.313-11.453-9.424-17.258-14.043-.662-2.586-.788-5.177-.033-7.768.044 1.306.082 2.607.12 3.914Z"/>
    <path fill="#8B2A29" d="M236.312 260.53c1.935.405 3.887.541 5.871.591 2.416.06 3.209 3.034 6.319 3.159-3.739 1.75-6.964.924-10.069 1.219-3.028.033-5.969-.371-8.746-1.661 1.924-1.673 3.875-3.286 6.625-3.308Z"/>
    <path fill="#B53535" d="M172.314 182.402c-.049.929.317 1.825-1.159 2.307-3.46 1.12-3.701 3.077-.891 5.636-.831 1.323-2.421 1.465-3.608 2.241-.951.623-2.121.448-2.968-.498-.869-.973-.809-1.951.027-2.924.41-.47.897-.869.913-1.602.115-4.707.683-5.401 5.089-6.352.159-.033.296-.202.438-.306.907.24 1.716.601 2.159 1.498Z"/>
    <path fill="#D31616" d="M260.802 262.121c-4.526-.618-9.047-1.301-13.59-1.831-3.629-.427-7.259-1.482-10.949-.366-.525-.35-1.05-.7-1.575-1.055l-.639-1.05c8.134-1.553 15.913 1.05 23.84 1.979 1.7.197 3.438.131 5.155.186-.339 1.137-1.4 1.519-2.242 2.137Z"/>
    <path fill="#922423" d="M489.874 244.694c-4.384-6.418-4.231-11.223.569-17.488 1.098.585 1.88 1.438 2.252 2.64.311.984-.317 1.722-.656 2.537-1.061 2.515-1.219 5.035-.142 7.593.415.984.984 1.979.153 3.034-.509.842-1.072 1.613-2.176 1.684Z"/>
    <path fill="#D0D0D0" d="M280.493 231.503c-.021 5.925-1.279 11.447-5.603 15.82-.847.858-.634 2.05-1.377 2.848-.039-3.067.196-6.166-.788-9.146-.24-.727-.262-1.197.525-1.486 3.827-1.405 5.39-4.855 7.243-8.036Z"/>
    <path fill="#8A1A14" d="M508.461 271.436c-1.246-1.022-3.165-.148-4.319-1.76-1.109-1.542-2.033-2.947-1.186-4.871 1.077-2.444 2.859-3.843 5.636-3.745 1.225 3.477 1.788 6.943-.131 10.376Z"/>
    <path fill="#FDD27D" d="M426.971 244.535c2.422.814 3.116 2.684 2.7 4.936-.426 2.313-2.334 3.127-4.395 3.368-2.29.267-3.826-.777-4.324-3.122 1.657-2.137 3.668-3.854 6.019-5.182Z"/>
    <path fill="#CC6DA8" d="M367.865 426.474c6.243.208 12.426 1.411 18.701 1.061 2.439-.137 4.871-.334 7.309-.432.875-.033 1.832-.252 2.608.437-6.615 3.133-13.508 2.662-20.407 1.4-2.804-.514-5.641-1.088-8.211-2.466Z"/>
    <path fill="#9B2E2D" d="M194.635 290.143c.333-.509.825-.738 1.399-.623 5.467 1.12 10.928 2.247 16.499 2.728.705.06 1.109.552 1.41 1.142-.935.875-2.083 1.061-3.297 1.022-4.406.525-8.691.071-12.813-1.623-1.411-.476-2.307-1.558-3.198-2.646Z"/>
    <path fill="#8B2424" d="M492.045 243.01c.175-1.837-1.438-3.078-1.596-4.8-.284-3.061.235-5.909 2.247-8.358 3.28 4.149 3.017 9.452-.651 13.158Z"/>
    <path fill="#453B41" d="M462.646 300.453c-.175 2.46 1.979 3.859 2.7 5.914.377 1.466-.104 2.264-1.7 2.204-2.039-1.597-2.35-4.445-4.378-6.047 1.126-.688 2.252-1.377 3.378-2.071Z"/>
    <path fill="#871913" d="M181.63 278.958c.935-1.509 7.828-5.062 9.261-4.652 1.312.372 1.82 1.383 1.596 2.733-1.263-1.415-2.706-1.503-4.384-.754-2.127.957-4.314 1.788-6.473 2.673Z"/>
    <path fill="#A21B18" d="M197.821 292.794c4.226.891 8.534 1.17 12.814 1.624-4.537 1.558-8.796.94-12.814-1.624Z"/>
    <path fill="#514E4E" d="M384.357 403.099c2.34-.011 4.674.011 7.014-.049.951-.022 2.001.317 2.804-.541 1.209-.241 2.275.098 3.701 1.044-4.816-.104-9.178.486-13.519-.454Z"/>
    <path fill="#E0DFDF" d="M366.302 396.533c-3.466.946-6.938.536-10.404-.01 2.367-.531 4.893.666 7.195-.646 1.066.225 2.137.443 3.209.656Z"/>
    <path fill="#BC1917" d="M142.243 228.895c.569 1.181 1.137 2.361 1.706 3.542-1.607-.29-2.105-1.465-2.302-2.875-.268-.645.066-.744.596-.667Z"/>
    <path fill="#BA2221" d="M142.242 228.895c-.197.219-.399.443-.601.661-.886-1.82-.514-3.733-.405-5.625.181.022.356.044.536.066-.011 1.651-.35 3.329.47 4.898Z"/>
    <path fill="#A21B18" d="M227.533 269.261c-.197-.361-.388-.716-.585-1.072.268-.945.383-1.951 1.115-2.706-.038 1.263-.071 2.526-.109 3.789-.142-.006-.279-.006-.421-.011Z"/>
    <path fill="#939393" d="M240.029 195.505c.432.629 1.198.383 1.761.667-.755.421-1.597.815-2.345.23-.296-.23.098-.771.584-.897Z"/>
    <path fill="#CD6DA8" d="M292.164 456.612c1.618 2.76 2.935 5.641 3.761 8.741-.722.984-1.826 1.076-2.903 1.279-10.479 1.935-21.008 2.777-31.701 2.897-11.419.131-22.85.962-34.264 1.842-16.22 1.247-32.406 2.794-48.571 4.554-2.006.219-3.974.459-5.663 1.695-2.515-7.55-4.385-15.258-5.839-23.075 11.89.405 23.775-1.47 35.67-.049 1.897.229 3.816.049 5.729.077 13.18.164 26.333.929 39.496 1.503 8.627.377 17.225 1.181 25.868 1.284 4.805.061 9.594.875 14.415.039 1.34-.235 2.684-.443 4.002-.787Z"/>
    <path fill="#F5D4E7" d="M292.164 456.611c-.049 1.804-1.399 1.438-2.536 1.608-6.074.918-12.147.213-18.204-.072-12.863-.601-25.715-1.415-38.572-2.082-4.986-.257-9.977-.274-14.968-.487-11.07-.47-22.161-.639-33.242-.552-4.887.038-9.796.339-14.694.405-1.104.016-2.171.049-2.969-.897-.995-3.717-1.864-7.462-2.427-11.272-.426-2.651 1.46-2.859 3.225-2.804 2.903.098 5.828.257 8.709.568 4.914.53 9.818.383 14.727.416 5.007.038 10.015 0 15.022.011 17.198.032 34.357.863 51.506 2.071 8.435.596 16.843 1.558 25.305 1.815 1.634.049 3.285.224 4.625 1.361 1.722 3.204 3.225 6.506 4.493 9.911Z"/>
    <path fill="#CD6DA8" d="M272.364 416.284c2.383 3.499 4.373 7.211 5.915 11.152-1.52.804-3.04.088-4.543-.049-10.867-.973-21.784-1.093-32.663-1.738-10.517-.629-21.046-1.23-31.558-1.985-3.991-.284-7.992-.393-11.983-.552-10.988-.432-21.976-.836-32.942-1.722-1.274-.104-2.542.142-3.816.06-.699-1.689-.929-3.515-.962-5.281-.071-3.946-1.678-7.106-4.324-9.894-.667-.705-1.886-1.405-.738-2.673 3.368.164 6.648.984 9.993 1.317 9.042.908 18.122 1.247 27.175 2.094 14.306 1.339 28.574 2.957 42.831 4.707 11.906 1.465 23.757 3.471 35.756 4.127.651.049 1.252.246 1.859.437Z"/>
    <path fill="#F4D4E7" d="M172.823 477.62c0-1.181.202-1.903 1.755-2.078 10.447-1.175 20.904-2.241 31.367-3.269 13.355-1.306 26.754-2.088 40.131-3.088 4.701-.35 9.462-.596 14.147-.482 12.065.29 23.889-1.328 35.702-3.35 1.17 2.099 2.061 4.313 2.783 6.598.175 1.875-1.449 1.869-2.526 2.268-6.724 2.499-13.748 3.384-20.86 3.86-13.525.902-27.033 2.055-40.508 3.537-18.302 2.017-36.429 5.111-54.441 8.883-1.356.284-2.865.973-4.057-.492-1.394-4.062-2.607-8.184-3.493-12.387Z"/>
    <path fill="#CD6DA8" d="M287.671 446.706c-13.656-1.066-27.306-2.17-40.967-3.171-3.985-.289-7.981-.328-11.977-.552-15.175-.852-30.372-.617-45.564-.634-6.817-.011-13.612-.344-20.401-.995-1.569-.153-3.871-1.011-4.204 1.919-1.246-4.625-2.105-9.32-2.564-14.087 4.27-.64 8.528.197 12.748.464 4.986.317 9.999.542 14.973.738 10.266.405 20.527.919 30.794 1.34 18.252.749 36.538 1.224 54.698 3.548 2.356.3 4.723.295 7.085.087 2.126 3.619 4.018 7.358 5.379 11.343Z"/>
    <path fill="#F5D4E7" d="M282.286 435.362c-.137.706-.115 1.356-1.279 1.241-5.511-.552-11.054-.792-16.542-1.514-5.593-.732-11.218-1.039-16.821-1.367-11.163-.645-22.353-.825-33.527-1.284-11.988-.492-23.97-1.05-35.948-1.646-4.624-.229-9.233-.661-13.858-.951-.847-.054-1.612-.218-2.318-.661-.595-2.548-1.076-5.106-1.219-7.725 1.471-1.989 3.521-.852 5.254-.803 4.532.137 9.053.678 13.579.891 13.344.623 26.699 1.055 40.037 1.787 9.064.498 18.111 1.302 27.196 1.629 9.162.328 18.313 1.006 27.47 1.602 1.339.088 2.651.574 3.974.88 1.329 2.635 2.668 5.276 4.002 7.921Z"/>
    <path fill="#CD6DA8" d="M176.316 490.012c3.324.432 6.44-.765 9.572-1.437 14.826-3.171 29.793-5.494 44.821-7.348 10.441-1.284 20.97-1.809 31.433-2.946 8.741-.951 17.63-.651 26.229-2.712 3.531-.847 7.314-1.235 10.342-3.624.678 1.296 2.028 2.416 1.083 4.133-13.618 4.269-27.273 8.347-41.289 11.163-16.673 3.351-33.308 6.893-50.2 9.041-8.298 1.055-16.613 1.919-24.912 2.974-1.361.175-2.662.558-4.012.749-1.427-3.203-2.443-6.538-3.067-9.993Zm96.649-87.405c1.115.667 1.646 1.815 2.651 2.947-2.503.524-3.804 2.143-4.892 3.996-1.252.623-2.498.169-3.745-.022-15.011-2.367-30.044-4.625-45.176-6.046-7.412-.7-14.863-1.083-22.32-1.318-8.626-.278-17.247-.945-25.835-1.831-4.094-.421-8.183-.148-12.272-.301-1.329-.049-2.772.268-3.838-.912 4.286-5.287 10.075-8.211 16.345-10.376 21.932 1.831 43.886 3.449 65.523 7.845 10.162 2.066 20.385 3.919 30.7 5.16 1.011.12 1.897.59 2.859.858Z"/>
    <path fill="#F5D4E7" d="M157.533 399.113c13.208-.371 26.295 1.427 39.442 2.165 4.444.252 8.894.301 13.349.536 10.523.563 20.981 1.656 31.395 3.225 9.058 1.367 18.133 2.635 27.196 3.969.618.093 1.208.355 1.809.536-.869 2.591-.01 4.756 1.646 6.729-3.898 1.05-7.774.006-11.589-.394-11.158-1.169-22.271-2.804-33.412-4.149-10.785-1.301-21.571-2.602-32.378-3.657-8.113-.792-16.264-1.274-24.403-1.738-4.811-.279-9.518-1.219-14.29-1.728-.689-.071-1.175-.442-1.536-1 .492-1.76 1.47-3.225 2.771-4.494Z"/>
    <path fill="#323131" d="M341.205 440.118c2.749-1.869 5.258-4.138 8.566-5.083 3.422-.979 6.609-.099 8.407 2.388-.005 1.083-.262 1.941-1.519 2.225-1.821.405-2.422 1.739-2.969 3.45-1.919 5.969-5.887 10.539-10.682 14.415-10.392 8.402-22.216 14.612-33.45 21.735-1.394.886-1.951.809-2.514-.77-.875-2.471-1.957-4.866-2.957-7.293.437-1.334 1.651-1.908 2.662-2.646 9.2-6.691 18.553-13.18 27.967-19.57 3.919-2.662 7.631-5.598 11.436-8.408 2.17-1.601 4.39-3.236 7.303-3.258-2.618-.136-4.772 1.017-6.713 2.542-12.753 10.02-26.655 18.423-39.633 28.126-1.044.782-2.028 1.897-3.58 1.689-.82-1.285-1.454-2.569 0-3.854 4.882-2.597 9.277-5.915 13.634-9.277 1.448-.918 2.897-1.837 4.346-2.75.24-.606.601-1.109 1.131-1.497 3.799-2.81 7.779-5.374 11.628-8.118.623-.443 1.361-.454 2.011-.744 1.651-1.104 3.291-2.203 4.926-3.302Z"/>
    <path fill="#F4D4E7" d="M179.384 500.011c1.667-2.597 4.532-1.624 6.724-1.837 28.776-2.81 57.093-8.211 85.246-14.618 8.774-1.995 17.159-5.308 25.906-7.363.831-.197 1.651-.979 2.536-.109-2.11 2.886-5.176 4.515-8.26 6.04-12.365 6.117-25.6 9.627-38.987 12.562-22.676 4.975-45.619 7.932-68.836 8.905-3.088.132-4.067-.962-4.329-3.58Zm93.581-97.404c-4.176.257-8.221-.71-12.283-1.394-16.635-2.804-33.177-6.172-49.894-8.418-7.363-.99-14.803-1.509-22.249-1.897-4.92-.257-9.971-.104-14.661-2.159 5.674-2.236 11.54-3.69 17.602-4.341 5.259-.574 10.496-.295 15.739.306 14.568 1.678 29.06 3.81 43.454 6.615 3.591.699 7.024 1.858 10.479 2.974 4.488 1.989 8.424 4.766 11.813 8.314Z"/>
    <path fill="#323131" d="M163.596 566.801c0-4.679 3.854-6.215 6.899-8.374 5.871-4.16 11.785-8.26 17.678-12.382 2.275-1.657 2.001.809 2.717 1.673-4.488 3.116-9.102 6.04-13.579 9.178 4.696-2.69 8.889-6.161 13.678-8.692 1.082 2.777 2.104 5.576 3.28 8.315.47 1.099.12 1.547-.749 2.192-6.189 4.603-12.65 8.796-19.232 12.808-.841.514-1.771 1.175-2.711.213-2.252-2.323-5.051-3.728-7.981-4.931Z"/>
    <path fill="#CD6DA8" d="M261.152 394.287c-4.975-.99-9.944-2.023-14.93-2.963-11.676-2.203-23.418-3.947-35.226-5.314-6.495-.749-12.989-1.394-19.521-1.618 4.214-1.235 8.61-1.317 12.901-1.448 17.717-.525 35.024 1.754 51.522 8.631 1.815.766 3.729 1.383 5.254 2.712Z"/>
    <path fill="#4260A5" d="M201.97 575.482c-4.685 2.728-8.823 6.227-13.24 9.337-1-.054-.929-.852-1.186-1.53-1.241-3.28-1.514-6.877-3.274-9.988 3.837-2.717 7.691-5.406 11.501-8.161 1.088-.788 1.553-.372 1.99.656 1.383 3.241 2.804 6.461 4.209 9.686Z"/>
    <path fill="#6B8DC8" d="M360.458 511.698c-1.416-2.28-.393-4.92-1.093-7.364-.438-1.525-.716-2.951-1.924-4.045-.82-.738-1.384-1.793-.629-2.646 2.558-2.897 1.919-6.237 1.656-9.572-.158-1.973-.049-3.985-.366-5.931-.383-2.318-.109-4.909-2.695-6.478-.929-.563-.946-2.011.186-2.793 2.372-1.646 2.115-4.029 1.935-6.402-.038-.53-.465-1.082-.383-1.568.596-3.636-.978-6.763-2.208-9.977.344-.295.732-.547 1.017-.886 2.099-2.509 3.443-.131 4.553.968 1.072 1.06.831 2.498-.667 3.602-.946.695-1.18 1.974-1.137 3.22.159 4.619.296 9.244.41 13.864.033 1.344.372 2.503 1.624 3.203 1.973 1.11 1.514 2.657.596 4.089-.564.875-1.022 1.673-1.001 2.728.088 4.532-.027 9.085.301 13.601.219 3.001 1.766 5.811 1.525 8.965-.12 1.47-.333 2.673-1.7 3.422Z"/>
    <path fill="#686867" d="M303.54 469.66c12.715-8.922 25.436-17.827 38.14-26.77 2.449-1.722 4.614-3.838 7.298-5.232 2.154-1.12 4.33-1.569 7.036-.071-9.605.711-14.755 8.227-21.697 12.628-10.343 6.56-20.166 13.934-30.208 20.964-.197-.508-.383-1.011-.569-1.519Z"/>
    <path fill="#777676" d="M366.422 439.578c.098-.438-.333-1.099.394-1.258.524-.115.973.186 1.186.727.929 2.766 1.345 5.609 1.355 8.517.077-1.427.115-2.848-.191-4.275-.191-.885-.306-1.804.449-2.547 1.066.448.973 1.394.978 2.29.016 2.34-.006 4.68.044 7.02.016.929-.126 1.809-.64 2.574-.35.52-.842 1.072-1.525.919-.875-.192-.508-1.017-.552-1.58-.066-.793-.017-1.596-.514-2.405v5.318c-1.837-.464-.716-2.164-1.476-3.115.579 2.771-.186 5.816 1.924 8.265.421 2.176 1.001 4.384-1.399 5.888-.738.082-1.624.546-1.886-.684.492-5.253-.372-10.468-.421-15.711-.022-2.312.164-3.777 3.176-2.214-.109-2.853.361-5.373-.902-7.729Z"/>
    <path fill="#777" d="M370.675 506.724c.099.153.137.317.115.497.257 1.061.705 2.061.973 3.116.109 1.307.044 2.608-.148 3.903-.12 1.012-1.224 1.433-1.448 2.384-.7.3-1.263.372-1.143-.689-1.842-3.198-.853-6.811-1.476-10.201-.475-2.564-.126-5.302-.754-7.811-.498-1.996.361-2.581 1.755-3.198-.449-.716-.318-1.46-.099-2.209 2.061.601 1.558 2.247 1.52 3.701-.787 3.57-.454 7.068.705 10.507Z"/>
    <path fill="#747474" d="M366.356 465.741c1.706-1.788.973-3.986 1.022-6.052-.415-.59-.393-1.142.159-1.64.694.995 2.378.815 2.69 2.263-.427 2.411-.312 4.789.486 7.112.055 2.52.11 5.04.159 7.561.027 1.344-.175 2.547-1.777 2.902-1.121-2.487-.967-5.198-1.361-7.811-.131-.881.186-1.799-.224-2.657-.044-.355-.088-.711-.126-1.061-.213-.421-.847-.147-1.028-.617Z"/>
    <path fill="#767576" d="M363.635 465.8c.333 3.089-.82 6.221.404 9.304.252.635.722 1.974-.792 2.094-1.241.099-1.733-.71-1.777-1.897-.17-4.712-.383-9.419-.547-14.125-.022-.645-.497-1.684.569-1.766.782-.06 1.465.579 1.547 1.569.115 1.432-.142 2.919.563 4.275.202.109.279.224.219.344-.06.142-.12.202-.186.202Z"/>
    <path fill="#767676" d="M365.329 491.882c-.224 2.651-.508 5.401.044 8.145.082.405.306.957-.241 1.192-.623.268-.957-.268-1.339-.656-.711-.727-.656-1.635-.695-2.542-.191-4.335.252-8.692-.53-13.005-.109-.596-.317-1.421.646-1.449.863-.027 1.497.388 1.557 1.46.126 2.252.361 4.504.558 6.855Z"/>
    <path fill="#666665" d="M190.988 548.204c-2.689 2.886-6.303 4.499-9.419 6.801-1.454 1.071-3.022 2-4.526 3.006-.432.29-.88.405-1.148-.082-.131-.235-.049-.836.137-.951 4.942-3.105 9.326-7.101 14.864-9.249.016.153.049.317.092.475Z"/>
    <path fill="#787778" d="M369.008 478.953c.044 1.427.088 2.848.131 4.275 1.165 1.804.793 3.8.514 5.696-.208 1.411-1.132 2.22-2.706 1.4-.224-3.204-.847-6.38-.65-9.605-.159-.344-.219-.705-.17-1.082.525-.962 2.099 1.487 2.247-.695.219-.169.426-.169.634.011Z"/>
    <path fill="#6E6E6E" d="M364.193 503.411c.661 3.799 3.039 7.259 2.247 11.348.191.459.268.913-.104 1.334-2.236-1.055-.935-3.231-1.4-4.832-.349-1.192-.53-2.406-1.251-3.455.213-1.465-.591-3.04.508-4.395Z"/>
    <path fill="#6E6D6E" d="M362.192 451.965c-.683-3.816-1.339-7.648-.814-11.507.273-.011.541-.017.814-.028v11.535Z"/>
    <path fill="#777" d="M366.41 479.385c-.038.443-.07.886-.109 1.329-.792-1.619-.426-3.368-.508-5.052-.077-1.476-.274-2.859-1.389-4.198.941-.093 1.706-.164 2.477-.24 1.612.213 1.798 1.508 1.897 2.706.114 1.404.076 2.826-.006 4.236-2.493-.18-.951-2.247-1.591-3.132-.317 1.317.372 3.001-.771 4.351Z"/>
    <path fill="#676766" d="M366.335 516.093c.033-.443.065-.885.104-1.334.464 1.263 1.098 2.16 2.585 1.181.328.569.716.7 1.198.159.218-.383.546-.378.907-.263.077.093.147.186.224.279-2.389 2.493-5.275 2.433-8.309 1.624.202-1.143.207-1.17 1.317-.995.793.125 1.755.907 1.974-.651Z"/>
    <path fill="#4E4E4E" d="M366.952 490.324c1.471.137 2.159-.519 2.143-2.006-.022-1.695.027-3.395.044-5.09.18.039.36.077.541.121 1.219 1.732.552 3.695.667 5.559-.197 1.399-.694 2.668-1.711 3.684-.027.711-.055 1.422-.082 2.138-1.148-1.246.268-3.422-1.602-4.406Z"/>
    <path fill="#515151" d="M368.533 478.358c-.312-2.433 1.016-5.248-1.657-7.134.929-1.148.344-2.548.634-3.805.727 3.46 2.061 6.828 1.585 10.468-.032.356-.06.711-.092 1.061-.148-.038-.296-.066-.443-.077-.131-.109-.181-.218-.148-.339.044-.114.082-.174.121-.174Z"/>
    <path fill="#787878" d="M364.192 503.411c-.307 1.449.481 3.023-.509 4.395-.787-1.29-.497-2.733-.502-4.116-.006-.754.497-.815 1.011-.279Z"/>
    <path fill="#6486C4" d="M366.351 468.671c.011.869-.114 1.547-1.006 1.404-.923-.147-.557-.967-.607-1.53-.054-.574.044-1.11.82-1.088 1.023.027.711.825.793 1.214Z"/>
    <path fill="#151926" d="M363.634 465.801c-.011-.181-.022-.361-.032-.541.322-.011.65-.017.972-.028.443.711 1.105.64 1.783.509.415.082.973-.066 1.027.617-1.273-.038-2.585.197-3.75-.557Z"/>
    <path fill="#4567AC" d="M366.581 491.844c.563.924.957 1.744.426 2.022-.913.47-.541-.524-.628-.913-.061-.235.082-.519.202-1.109Z"/>
    <path fill="#698BC7" d="M351.378 488.006c-.41-.979-.475-1.629.279-2.509.574.902.656 1.552-.279 2.509Z"/>
    <path fill="#676766" d="M372.414 513.284c2.246 1.487 1.902 4.007 2.028 6.073.393 6.429.678 12.868.749 19.319.087 7.883.634 15.766.973 23.648.027.635.011 1.274-.028 1.908-.021.372-.169.727-.601.787-.558.071-.82-.273-.896-.77-.055-.361-.066-.722-.077-1.088-.191-5.806-.35-11.611-.568-17.417-.345-9.063-.717-18.127-1.127-27.191-.043-1.011.071-2.306-1.525-2.438l-.142-.185c.153-.875.694-1.608.929-2.449.099-.066.192-.132.285-.197Z"/>
    <path fill="#646563" d="M376.732 583.42c0 2.701.022 4.608-.011 6.511-.011.672.262 1.744-.722 1.771-1.251.038-.863-1.159-.869-1.875-.049-3.45.033-6.899-.06-10.343-.065-2.525-.366-5.046-.492-7.571-.038-.749-.317-1.93.82-1.946.875-.017.782 1.071.771 1.776-.049 4.171.984 8.288.563 11.677Z"/>
    <path fill="#787878" d="M372.315 510.053c.049.891.098 1.776.148 2.668-.017.185-.033.371-.05.563l-.175.043c-.278.088-.497.017-.656-.235-.054-.798-.027-1.596-.021-2.394.049-.454.235-.744.754-.645Z"/>
    <path fill="#FFE993" d="M320.831 453.167c-1.443.481-1.919-.688-2.504-1.536-3.4-4.892-2.104-11.709 2.838-15.098 4.783-3.28 11.583-2.045 14.989 2.656 1.028 1.422 1.318 2.602-.421 3.63-1.263 1.886-3.362 2.744-5.122 3.963-3.203 2.22-6.172 4.806-9.78 6.385Z"/>
    <path fill="#1F1D16" d="M320.831 453.168c4.789-3.701 9.785-7.107 14.897-10.343.185.197.377.393.563.59-4.926 3.455-9.846 6.91-14.771 10.359-.23-.202-.459-.404-.689-.606Z"/>
    <path fill="#777" d="M368.637 492.592c-.497-1.366.946-2.121 1.05-3.296.131-.181.306-.246.519-.23 1.022-1.246-.284-3.099 1.121-4.231.585 6.243 1.372 12.497-.689 18.641-1.241-.196-.88-1.164-.935-1.935.372-1.591.579-3.181 0-4.772-.027-.12-.054-.241-.076-.361-.06-1.345-.399-2.613-.99-3.816Z"/>
    <path fill="#919191" d="M369.609 440.748c.169 2.585.754 5.149.519 7.762-.049.525.028 1.148-.672 1.285-.547.104-.902-.296-.853-.771.355-3.362-1.006-6.615-.601-9.977.535.569 1.071 1.132 1.607 1.701Z"/>
    <path fill="#909190" d="M367.532 458.049c-.049.547-.104 1.094-.153 1.64-.667.104-1.399.132-1.481-.721-.263-2.695-.448-5.396-.629-8.096-.033-.53-.005-1.23.744-1.17.606.049.765.661.863 1.23.23 1.306-.404 2.733.531 3.947.038 1.06.082 2.115.125 3.17Z"/>
    <path fill="#929392" d="M370.239 501.208c-.022.781-.251 1.601.399 2.263.011 1.082.022 2.17.038 3.252-1.869-1.077-2.656-8.839-1.049-10.321l.06-.021c1.159 1.497.847 3.159.552 4.827Z"/>
    <path fill="#8E8F8E" d="M370.713 467.43c-1.575-1.902-1.826-5.576-.487-7.112.869 2.318.678 4.712.487 7.112Zm.613 17.4c-.017 1.596-.028 3.187-.044 4.783-.006.443-.044 1.072-.574.99-.64-.104-.476-.831-.552-1.334-.492-1.296-.175-2.64-.213-3.963-.022-.815.235-1.476 1.279-.902.076.125.109.268.104.426Z"/>
    <path fill="#6C6C6C" d="M371.217 484.393c-2.148 1.23-.475 3.296-1.06 4.865-.159.011-.317.022-.476.033 0-1.985 0-3.969-.005-5.948.787-.038 1.312.29 1.541 1.05Z"/>
    <path fill="#5E5E5E" d="M372.316 510.053c-.17.175-.345.349-.514.524-.169.241-.344.23-.508-.005-.646-1.044-.662-2.187-.503-3.357.426.99 1.59 1.586 1.525 2.838Z"/>
    <path fill="#938E8F" d="M319.918 315.808c-5.576.066-10.999-.475-16.312-1.847-13.093-3.39-19.926-13.727-17.986-27.071 1.192-8.205 3.909-15.848 8.2-22.949 10.999-18.214 23.971-34.734 41.109-47.646 5.264-3.964 11.338-6.517 17.313-9.179 1.465-.65 3.187-1.17 4.75-1.088 8.96.498 17.98.514 26.699 3.22 10.556 3.275 16.493 11.185 20.172 20.801 4.985 13.043 3.083 25.649-3.98 37.632-5.16 8.757-12.546 15.273-20.587 21.177-11.299 8.298-22.714 16.46-35.56 22.255-7.539 3.4-15.575 4.985-23.818 4.695Z"/>
    <path fill="#020303" d="M431.31 315.557c7.544-.661 15.11-.147 22.66-.508.513-.028 1.022-.246 1.53-.378 1.148-.065 2.039-.699 2.952-1.295 1.071-.705 1.76-.038 2.209.776.53.968-.164 1.749-.99 1.821-1.946.164-2.143 1.486-2.531 2.957-2.159 8.244-2.022 16.733-2.678 25.13-.564 7.249-3.537 12.267-10.77 14.661-4.373 1.449-8.517 3.603-13.114 4.374-7.604 1.273-14.749-.317-21.659-3.499-9.222-4.242-16.17-11.037-21.593-19.401-3.657-5.631-7.516-10.889-13.705-14.027-1.612-.815-3.214-2.121-2.782-4.253.476-2.362 2.422-3.75 4.248-5.073.519-.377 1.716-.334 1.694.661-.065 2.739 1.886 2.488 3.548 2.537 7.188.191 14.377.131 21.478-1.214 9.758-1.853 19.603-2.799 29.503-3.269Z"/>
    <path fill="#72636D" d="M406.744 287.787c-.328.41-.651.825-.979 1.235-4.679 5.565-10.747 9.173-17.351 11.863-5.625 2.29-11.091 4.991-16.908 6.8-3.149.979-5.707 3.078-8.664 4.811-.525-1.881.727-2.487 1.727-3.122 6.227-3.946 12.737-7.374 19.598-10.053 5.286-2.066 10.19-4.674 14.82-7.975 2.837-2.023 4.635-4.789 6.707-7.402 0 .109.027.213.088.306.951 1 .377 2.427.962 3.537Z"/>
    <path fill="#796B75" d="M463.64 308.571c.875-.498 1.596-1.115 1.7-2.203.164.022.328.033.492.033.115.42.175.863.35 1.251.492 1.088 1.634 2.335.093 3.226-1.585.918-2.034-.722-2.657-1.728.011-.191.017-.382.022-.579Z"/>
    <path fill="#B53635" d="M185.67 246.962c-.35 1.312-2.17 2.236-1.268 2.985 1.661 1.372 3.771.656 5.701-.077-.191-1.23-1.317-.694-1.946-1.055-.929-.53-1.662-1.06-1.629-2.263.033-1.153.618-1.902 1.618-2.296 1.815-.716 3.69-.929 5.593-.312.606.197 1.202.503 1.814.558 1.187.098 1.946-.787 2.187-1.695.295-1.098-.897-1.197-1.629-1.328-1.602-.279-3.225-.454-4.843-.601-1.329-.115-2.455-.618-2.373-2.045.066-1.23 1.126-1.684 2.362-1.787 1.58-.132 3.045.475 4.581.552 1.399.065 3.099.022 3.498-1.427.372-1.328-1.17-2.154-2.225-2.772-1.831-1.071-3.837-1.661-6.008-1.038-2.148.617-4.34.328-6.505.229-.88-.038-1.831-.442-1.842-1.629-.011-1.071.7-1.864 1.607-1.929 5.838-.389 11.704-.749 16.362 3.881 1.58 1.574 2.345 3.329.743 5.286-.749.918-.393 1.591-.038 2.46.743 1.82.672 3.449-1.039 4.871-1.093.913-2.11 2.061-2.788 3.307-2.509 4.608-9.047 6.052-14.224 4.335-2.678-.886-3.078-2.897-.907-4.614.863-.672 1.705-1.602 3.198-1.596Z"/>
    <path fill="#B63534" d="M177.267 236.04c-1.656-.497-3.4-.984-5.116-1.558-1.225-.41-1.662-1.377-1.427-2.596.235-1.225 1.044-1.968 2.291-1.908 2.088.093 4.143.514 6.095 1.246 1.29.487 1.684 1.651 1.328 2.93-.421 1.509-1.787 1.602-3.171 1.886Z"/>
    <path fill="#E52622" d="M154.296 238.658c2.11 1.203 4.543 1.099 6.817 1.646.787.186 1.214.213 1.094 1.328-.339 3.198 2.006 4.942 5.072 3.909.684-.23 1.416-.509 1.93-.979 1.241-1.148 2.46-1.099 3.625-.065.956.847.907 2.039.196 2.952-.924 1.191-1.913 2.449-3.832 1.727-2.028-.76-4.116-1.361-6.177-2.039-1.323-.432-2.416.049-3.023 1.153-.711 1.301.219 2.231 1.186 2.974 1.646 1.263 3.674 1.422 5.593 1.919.557.148 1.722-.038 1.465 1.115-.164.727-.831 1.154-1.613 1.285-.088.016-.18.033-.268.027-3.591-.093-6.188-2.361-8.971-4.171-3.241-2.11-3.875-3.941-2.782-8.391.383-1.542-.273-2.624-.918-3.81-.099-.492.06-.733.606-.58Z"/>
    <path fill="#BE2E2D" d="M154.297 238.658c-.202.197-.399.394-.601.591-.569-.47-1.564-.438-1.75-1.46 1.033-.306 1.7.263 2.351.869Z"/>
    <path fill="#4E444B" d="M406.744 287.786c-1.968-.727-.711-2.345-.974-3.542 2.4.29 2.515.7.974 3.542Z"/>
    <path fill="#B97C13" d="M414.704 276.339c5.51 4.374 10.753 9.037 16.285 13.355-6.062-3.684-12.409-7.019-16.285-13.355Z"/>
    <path fill="#878887" d="M371.839 513.305c.137 0 .268.006.405.022.388 1.159-.055 1.99-1.033 2.602-.328.055-.662.11-.99.164-.814-1.279 1.066-.929 1.045-1.733-.285-.606.152-.825.573-1.055Z"/>
    <path fill="#4F4E4E" d="M371.839 513.306c-.191.355-.382.71-.574 1.06-.683-1.268.35-2.525.027-3.788.17-.011.34-.006.509.005.011.902.027 1.815.038 2.723Z"/>
    <path fill="#8C8D8C" d="M368.532 478.357c.022.17.033.345.027.52-.011.437-.022.88-.043 1.317-.028.519.038 1.153-.629 1.285-.913.18-.886-.574-1.033-1.165-.082-.328-.295-.617-.448-.929-.017-1.618-.05-3.236-.05-4.854 0-.563.153-1.208.777-1.236.634-.022.748.618.847 1.17.229 1.296-.454 2.717.552 3.892Z"/>
    <path fill="#575756" d="M370.238 501.208c-.049-1.624-.054-3.253-.557-4.827 1.918 1.41 1.082 3.132.557 4.827Z"/>
    <path fill="#fff" d="M355.379 256.764c-3.17-3.903-5.128-8.249-4.925-13.399.038-.945.005-1.847 1.224-2.044.99.208.88 1 .919 1.716.278 4.926 2.443 8.862 6.942 10.873 4.751 2.127 11.939.317 15.208-3.252.951-1.039 1.482-2.28 1.81-3.625.399-1.656 1.47-2.613 3.132-2.432 6.057.667 12.114 1.394 18.111 2.503.53.099 1.011.416 1.295.93.011 3.455-.486 6.74-3.187 9.266.126.486-.016.924-.344 1.257-7.516 7.686-16.4 11.791-27.284 9.501-5.707-1.203-9.85-4.915-12.709-9.993-.219-.399-.334-.836-.192-1.301Z"/>
    <path fill="#020303" d="M399.102 248.039c-6.571-.935-13.136-1.864-19.702-2.81-.995-.142-1.629-.082-1.995 1.143-1.973 6.533-8.654 10.386-15.471 9.031-6.281-1.252-10.49-6.866-9.872-13.169.038-.394 0-.705-.372-.908-.311-.158-.612-.339-.929-.47-.891-.372-1.728-.858-1.394-1.979.317-1.055 1.301-1.191 2.241-1.082 6.396.738 12.787 1.525 19.182 2.258 10.272 1.175 20.549 2.356 30.832 3.443 1.853.197 3.121.902 2.826 2.783-.279 1.755-1.645 2.498-3.487 2.072-.618-.148-1.241-.213-1.859-.312Z"/>
    <path fill="#030405" d="M355.38 256.764c.235.273.53.514.7.825 7.352 13.694 24.015 12.081 33.024 5.521 2.405-1.749 4.548-3.859 6.811-5.8 2.159.667 2.7 2.034 1.197 3.351-4.707 4.149-9.484 8.167-15.673 10.092-10.239 3.176-21.888-1.066-26.48-9.802-.459-.88-.853-1.82-1.104-2.772-.333-1.273.377-1.629 1.525-1.415Z"/>
    <path fill="#B9586B" d="M444.912 354.916c-.328.148-.662.301-.99.449-1.415.978-1.137-.542-1.547-1.045-.951-2.323-1.897-4.652-2.848-6.975-.661-.568-1.098-.437-1.279.421-.126.585.164 1.235-.311 1.76-.011.323-.017.645-.028.968-.601.858.208 2.012-.596 2.826-.344.519-.694 1.039-1.038 1.558-.793 1.197.792 3.389-1.635 3.903-.727-.087-1.388.093-1.989.498-.257-.077-.591-.153-.7-.372-2.171-4.444-5.5-8.107-8.189-12.202-.29-1.306.049-2.481.694-3.624 4.105-7.227 8.019-14.552 10.753-22.429.47-1.361 1.306-2.078 2.728-2.149 1.443-.311 2.979.055 4.373-.59 2.121-.962 2.744.109 2.897 2.028.235 2.952-.65 5.691-1.487 8.473 1.214-2.011 2.225-4.105 3.297-6.166.486-.946.819-2.066 2.077-2.356.82.279.913 1 1.039 1.7.093 1.35.027 2.706.032 4.056 0 1.717-.825 4.215 3.182 1.974-1.203 3.285-.645 5.914-1.159 8.467-.689 3.007.06 6.107-.58 9.108-.3 1.41.061 3.116-1.634 3.958-.935-.651-.251-1.837-.951-2.668-.864-1.017-1.361-1.422-1.815.191-.59 1.066.115 2.313-.47 3.379-.208.885-.416 1.776-.623 2.662-.017.945.541 2.197-1.203 2.197Z"/>
    <path fill="#A53B51" d="M437.936 318.503c-1.607.498-2 1.979-2.438 3.28-2.498 7.495-6.368 14.334-10.178 21.194-.689 1.236-1.192 2.395-1.039 3.8-1.208.328-1.875-.563-2.498-1.263-3.783-4.253-8.534-6.593-14.132-7.336-.628-.082-1.262-.208-1.645-.815-.35-1.028.066-1.962.383-2.892 1.312-3.854 2.29-7.784 2.924-11.802.115-.716.202-1.438.809-1.946 3.543-.787 7.123-1.29 10.753-1.247 5.718.077 11.376-.634 17.061-.973Z"/>
    <path fill="#B9586B" d="M430.19 359.864c-2.657.24-5.297.694-7.982.535-1.667-.114-2.58-.743-3.072-2.607-.803-3.072-2.575-5.806-4.083-8.605-.296-.546-.705-1.213-1.454-.945-.563.202-.569.891-.585 1.432-.072 2.181-.028 4.362 0 6.549.01.798.306 2.012-1.296 1.487-.732-.361-1.465-.722-2.203-1.082-1.214-.509-.437-1.854-1.093-2.597-1.263-2.138-2.477-4.313-3.81-6.401-.46-.722-1.11-1.63-2.171-1.302-1.049.328-.579 1.351-.606 2.089-.022.732.054 1.459-.629 1.968-4.182-2.351-5.767-7.058-9.151-10.146-.006-1.236 1.028-1.225 1.738-1.192 4.98.235 9.944-.798 14.924-.109 4.275.59 7.981 2.296 11.081 5.324 3.504 3.428 7.084 6.801 9.457 11.168.749 1.345 2.072 2.657.935 4.434Z"/>
    <path fill="#88393E" d="M410.128 320.723c-.087 5.849-2.258 11.217-3.848 16.722-.121.137-.241.361-.383.372-5.172.492-10.359 1.952-15.487-.257-2.012-2.214-4.072-4.406-5.636-6.964-2.296-3.75-5.139-6.735-9.753-7.582 4.297-.618 8.414.36 12.568.333 1.515 1.711 1.941 4.023 3.242 5.855.465.656.771 1.427 1.279 2.061.443.552.858 1.355 1.673 1.142.853-.218.749-1.126.792-1.82.077-1.345-.076-2.706.132-4.04.202-1.312.268-2.695 1.279-3.745 1.203.006 2.405.006 3.608.011 1.47 1.012 1.607 2.755 2.301 4.193.656 1.361.995 2.892 2.603 4.313.825-2.76 1.279-5.362 2.082-7.85.437-1.35.891-2.558 2.477-2.853.36.038.716.076 1.071.109Z"/>
    <path fill="#130B0D" d="M390.416 337.56c5.292.585 10.578-.148 15.864-.12 6.276.279 11.551 2.706 15.809 7.33.667.727 1.46 1.34 2.193 2.001 3.323 3.81 6.286 7.861 8.363 12.508-.82.191-1.639.388-2.454.579-.251-3.613-2.805-6.008-4.751-8.664-2.197-3.007-4.963-5.543-7.839-7.921-3.537-2.925-7.79-3.843-12.207-3.931-4.078-.082-8.161.197-12.245.312-.464.011-.907.049-1.093.579-1.328-.404-.607-2.077-1.64-2.673Z"/>
    <path fill="#140E0F" d="M448.978 320.094c-1.459 2.909-2.913 5.817-4.373 8.725-.35.694-.541 1.799-1.618 1.356-1.099-.449-.503-1.372-.164-2.083 1.132-2.405 1.678-4.92 1.826-7.582.098-1.826-.404-2.755-2.329-2.602.585-.815 1.46-.563 2.252-.602 2.706-.125 5.412.214 8.118-.47 1.504-.377 2.941-.06 1.733 2.105-1.509-.383-1.979.519-2.05 1.749-.076 1.389-.322 2.744-.688 3.903.612-.956.502-2.536 2.049-3.077-.12 5.012-.694 9.976-1.476 14.923-.311-.196-.355-.442-.136-.738v-6.887c-.596.175-1.17 1.541-2.302.814-1.077-.689-.426-1.787-.404-2.728.038-1.705.076-3.411.109-5.117-.082-.584.995-1.547-.547-1.689Z"/>
    <path fill="#191011" d="M411.725 357.704c.776-.043.699-.481.672-1.109-.087-2.537-.071-5.079-.082-7.621 0-.814-.076-1.744.886-2.083.967-.344 1.563.383 1.962 1.094 1.853 3.323 4.007 6.554 4.947 10.261.361 1.41 1.045 1.782 2.1 2.153-1.427.274-2.75-.207-4.084-.585-.738-1.235-1.05-2.651-1.651-3.941-.432-1.142-.929-2.252-1.684-3.395-.798 2.149 1.137 4.39-.694 6.232-.809-.295-1.755-.268-2.372-1.006Z"/>
    <path fill="#120E0D" d="M395.991 322.805c-.52 2.838-.76 5.697-.678 8.589.027.902.016 1.875-1.066 2.241-1.11.377-1.662-.438-2.165-1.186-1.892-2.838-3.92-5.609-4.488-9.097 2.728-1.274 5.62-.038 8.397-.547Z"/>
    <path fill="#140E0E" d="M409.063 320.619c-2.613 2.41-2.411 5.887-3.308 8.932-.3 1.028-.043 2.46-1.355 2.646-1.159.164-1.482-1.181-1.854-2.066-1.022-2.422-1.967-4.877-2.941-7.315 1.094-.044 1.646-1.547 2.93-1.088-.311 1.744.443 3.237 1.121 4.745.071-.038.181-.06.208-.114.071-.159.104-.334.131-.52.011-1.186 1.339-2.263.246-3.515-.295-.186-.568-.388-.716-.716 1.766-.765 3.706-.568 5.538-.989Z"/>
    <path fill="#C2A285" d="M414.096 358.705c.509-2.542-.792-5.144.301-7.965 1.258 1.591 1.935 3.22 2.635 4.843-.454 1.389 1.553 2.673.18 4.1-1.24.328-1.88-1.268-3.116-.978Z"/>
    <path fill="#C0A184" d="M453.723 321.526c-.727 1.526-1.449 3.051-2.176 4.576-.18-.033-.361-.066-.541-.104.322-2.411.64-4.821.962-7.238.082-.617.399-.945 1.066-.973.853-.038 1.421.181 1.372 1.165-.454.798-.667 1.661-.683 2.574Z"/>
    <path fill="#1A1112" d="M452.112 335.712c.044.246.093.492.137.738-.378 3.761.475 7.593-.602 11.321-.442 1.537-.426 1.542-1.672 1.394 1.514-2.788 1.366-5.882 1.705-8.894.175-1.525-.219-3.094.432-4.559Z"/>
    <path fill="#C1A285" d="M440.238 356.677c-.579.36-1.164.721-1.743 1.082-1.755.383-1.345-.722-1.148-1.678.535-.858 1.175-1.635 1.284-2.75.055-.552.514-1.541 1.416-.503-.372 1.307.41 2.553.191 3.849Z"/>
    <path fill="#C2A386" d="M404.569 326.036c.054.76-.323 1.356-.853 2.203-.695-1.689-1.225-3.252-1.974-4.706-.563-1.088.066-1.411.793-1.81.328-.038.661-.082.989-.12.367.044.727.087 1.094.131-.399 1.432-1.132 2.859-.049 4.302Z"/>
    <path fill="#171010" d="M437.346 356.081c.131.732-.328 1.864 1.148 1.678-1.203.65-2.488.984-3.854 1.022 1.782-.782.426-2.881 1.634-3.903v2.662c.52-.711.793-1.088 1.072-1.459Z"/>
    <path fill="#CAAB8F" d="M404.076 349.493c.541 1.012 1.077 2.023 1.684 3.16-1.126.273-1.75-.311-2.346-.962-.005-.804-.814-1.842.662-2.198Z"/>
    <path fill="#D3B496" d="M440.238 356.677c-1.083-1.23-.837-2.526-.192-3.843-.153 1.29 2.089 2.465.192 3.843Z"/>
    <path fill="#1A1112" d="M444.912 354.916c1.05-.377.749-1.486 1.197-2.192.427 1.083 1.526-.24 2.111.662-.738 1.268-1.887 1.667-3.308 1.53Z"/>
    <path fill="#D9B99A" d="M417.213 359.689c.399-1.389-1.006-2.695-.181-4.1.547 1.361 1.821 2.531 1.094 4.226-.306-.044-.607-.088-.913-.126Z"/>
    <path fill="#171010" d="M437.936 349.526c-.043-.721-.109-1.443-.12-2.164-.005-.531-.049-1.263.618-1.318.749-.06.962.662 1.093 1.301-1.476.033-.645 1.755-1.591 2.181Z"/>
    <path fill="#1A1112" d="M448.454 349.642c.574.929.624 1.623-.382 2.301-.388-.902-.482-1.602.382-2.301Z"/>
    <path fill="#221917" d="M404.077 349.494c-1.099.464-.318 1.498-.662 2.192-.716-.749-.645-1.75-.328-2.482.47-1.099.831-.443.99.29Z"/>
    <path fill="#1A1112" d="M446.732 350.062c.022-1.142-.224-2.329.47-3.378-.076 1.131.47 2.356-.47 3.378Z"/>
    <path fill="#221917" d="M408.427 354.025c1.121.547.219 1.946 1.093 2.597-1.705-.301-.858-1.678-1.093-2.597Z"/>
    <path fill="#171010" d="M442.376 354.315c.415.503.585 1.361 1.547 1.044-.191.454-.508.755-1.017.552-.776-.3-.519-1-.53-1.596Zm-5.063-.995c.268-.929-.054-1.979.596-2.826-.076.967.492 2.072-.596 2.826Z"/>
    <path fill="#FAFAFA" d="M355.95 241.933c1.601.224 2.93.426 4.269.596 2.274.289 2.783 1.262 1.531 3.208-1.072 1.668-2.646 2.433-4.642 1.908-2.006-.53-2.935-1.88-2.902-3.985.027-1.432.607-1.995 1.744-1.727Z"/>
    <path fill="#A04D5D" d="M448.979 320.094c.12-.508.207-1.033.929-1.366.175 1.12.153 2.115-.399 3.066-.17-.563.054-1.257-.53-1.7Z"/>
    <path fill="#C3A385" d="M447.601 318.684c-.241.322-.432.803-.634.809-.416.011-.356-.465-.334-.76.028-.35.203-.694.624-.612.142.021.224.355.344.563Z"/>
    <path fill="#D7B799" d="M393.722 330.311c-1.848-1.273-2.629-2.864-3.362-4.471-.35-.771-1.252-1.859-.454-2.378.787-.514 2.132-.421 3.176-.241 1.165.202.586 1.34.618 2.056.077 1.672.022 3.356.022 5.034Z"/>
    <path fill="#D9B99B" d="M404.569 326.036c-1.93-1.831-1.919-3.045.049-4.297.864-.246 1.225.093.99.946-.317 1.126-.695 2.23-1.039 3.351Z"/>
</svg>