<svg xmlns="http://www.w3.org/2000/svg" width="600" height="600" fill="none" viewBox="0 0 470 578">
    <g clip-path="url(#a)" opacity=".98">
        <path fill="#B5A2A5" d="M136.858 380.432c-11.569 21.951-21.889 44.54-30.913 67.66-6.3701 16.334-14.792 38.115-22.1611 67.982-4.712 19.107-8.2692 38.481-10.6522 58.018H451.998c-5.971-136.874-42.345-270.685-106.468-391.667 1.695-4.41 9.118-25.18-.812-47.659-12.347-27.98-40.976-34.573-44.955-35.3777-6.245-1.3418-25.078-5.3223-42.939 6.3067-16.273 10.599-21.117 27.246-22.259 31.692l1.08 2.164c-1.223-.161-2.454-.313-3.694-.447-16.058-1.789-41.725-4.535-69.07 4.553-.348-2.218-2.979-17.46-17.004-25.806-11.598-6.924-23.338-4.473-27.085-3.65-17.451 3.918-25.6941 18.427-27.3 21.254-1.9805 3.488-6.9051 12.433-5.7811 24.473 1.6416 17.604 14.8631 27.676 17.1831 29.385l-.268.456c-6.7714 11.628-15.1664 33.096-11.134 69.986l.1071.286c-3.861 1.183-7.4466 3.13-10.5451 5.725-3.7715 3.277-6.7388 7.382-8.6717 11.995-1.365 2.988-3.8719 9.464-3.6132 20.126.4996 20.654 10.8931 37.918 12.7666 40.951 3.5686 5.733 22.0183 35.699 52.0303 39.876 1.489.206 3.015.349 4.549.448l-1.257 1.27Z"/>
        <path fill="#727272" d="M342.22 180.788c-.926-.74-1.953-1.343-3.051-1.789-.419-.188-.871-.288-1.329-.295-.486-.041-.973.062-1.401.295-1.062.823-.526 3.167-.321 4.026 6.111 25.627 10.438 35.422 10.438 35.422 7.628 19.5 17.307 46.004 26.978 77.929 23.267 76.829 31.769 136.76 33.884 152.414 5.592 41.668 8.329 83.671 8.19 125.713l36.39-.447c-.758-10.734-1.954-26.647-3.711-45.995 0 0-1.606-17.693-3.417-34.814-18.307-172.46-101.053-311.206-102.65-312.459Z"/>
        <path fill="#727272" d="M389.245 404.548c6.565 57.536-.704 115.812-21.198 169.955h-38.888c26.828-53.999 47.005-111.07 60.086-169.955Zm-268.954 17.425c1.713 1.208 7.592-7.854 28.548-25.315 10.135-8.435 18.967-14.804 25.052-18.999-7.324-1.396-14.882-.891-21.956 1.467-25.551 8.802-34.562 40.799-31.644 42.847Zm137.3-314.006c-1.102 6.592-.551 13.355 1.606 19.679 4.648 13.516 15.166 20.162 18.324 21.978l-44.178-11.029c2.419-7.97 6.652-15.267 12.365-21.316 3.495-3.659 7.497-6.795 11.883-9.312Z"/>
        <path fill="#727272" d="M257.913 125.329c-.967-3.566-1.412-7.254-1.321-10.948.091-1.757.321-3.504.687-5.224-2.404.961-4.674 2.23-6.753 3.774-5.05 3.766-7.566 8.167-9.475 11.629-2.346 4.223-4.025 8.786-4.978 13.525l34.178 6.109c-1.525-1.413-9.546-8.936-12.338-18.865Z"/>
        <path fill="#83787A" d="M349.607 193.311c42.721 80.848 72.559 167.902 88.429 258.001 7.072 40.546 11.246 81.547 12.49 122.69l-16.005.501c1.003-40.795-1.469-81.601-7.387-121.974-3.426-23.347-8.163-57.561-22.999-103.315 0 0-1.294-3.158 0-4.848-4.247-12.944-10.653-31.657-19.244-53.921-5.041-13.051-15.862-41.675-26.291-65.102-8.387-18.838-17.46-33.937-15.898-37.515.214-.492.794-1.789 1.784-1.932 1.856-.224 3.881 4.231 5.121 7.415ZM92.8841 239.208c1.0259.045 0 5.492 3.9611 11.807 2.3642 3.757 4.6388 4.866 4.1748 6.548-.669 2.433-6.5301 4.186-9.5277 2.147-5.6205-3.838-.4193-20.583 1.3918-20.502Zm297.9399 155.75c.651 11.468 1.302 34.976-3.569 59.574-2.185 11.137-6.7 28.624-10.598 37.999-.348.841-1.731 4.114-3.212 8.694-1.488 4.533-2.68 9.159-3.569 13.847-1.15 5.984-6.7 20.905-25.051 58.984h-15.363c8.154-16.101 16.166-33.428 23.74-52.096 16.635-41.005 29.236-83.54 37.622-127.002ZM243.566 122.565c1.033 3.145 2.633 6.074 4.72 8.641 1.302 1.809 2.937 3.351 4.817 4.544 3.301 1.941 6.013 1.699 6.852 3.667.169.519.232 1.067.186 1.611-.046.544-.2 1.073-.454 1.556l-24.623-5.367 8.502-14.652Z"/>
        <path fill="#727272" d="M85.7112 159.884c1.6415 17.604 14.8628 27.676 17.1828 29.384.544-.894 1.008-1.655 1.16-1.905 15.166-24.152 37.889-34.823 46.534-38.857 4-1.868 8.105-3.502 12.294-4.893-.348-2.219-2.98-17.461-17.005-25.807-11.598-6.923-23.338-4.472-27.085-3.649-17.45 3.918-25.6939 18.427-27.2997 21.253-2.0074 3.489-6.9052 12.434-5.7811 24.474Z"/>
        <path fill="#C4C4C4" d="m89.082 262.107 3.5686 2.514c.1095.077.2025.176.2733.29.0708.114.118.241.1388.373.0208.133.0148.269-.0177.399s-.0908.253-.1714.36l-14.6311 19.402c-.0522.069-.1233.121-.2046.15-.0813.03-.1693.035-.2534.015-.0841-.02-.1607-.064-.2203-.127-.0597-.062-.0999-.141-.1157-.226-.3212-1.852-.5978-3.846-.7851-5.966-.3097-3.426-.3813-6.869-.2141-10.305l12.6327-6.879Zm71.515-105.193c-14.275 7.344-22.946 14.813-28.263 20.502-2.106 2.245-6.897 7.621-15.631 16.995-2.801 2.988-5.165 5.493-6.878 7.29-.159.17-.353.302-.569.386-.217.083-.449.117-.68.098l-4.764-.403c-.115-.007-.227-.039-.328-.095-.101-.055-.189-.132-.257-.225s-.115-.2-.137-.313c-.022-.113-.02-.23.008-.342.451-1.929 1.063-3.817 1.829-5.644.972-2.335 3.568-7.935 12.847-16.316 11.925-11.208 26.772-18.8 42.823-21.897v-.036Zm-42.154 285.552c.047-.109.119-.206.209-.283.09-.078.197-.134.311-.165.115-.031.235-.036.352-.014.117.022.227.07.323.14 1.561 1.091 3.274 2.209 5.148 3.301 2.219 1.308 4.502 2.503 6.843 3.578.189.082.339.236.418.429.078.192.079.407.001.599-1.784 4.473-4.381 11.039-7.744 18.928-3.631 8.507-5.469 12.344-7.708 17.55-4.746 11.02-7.494 19.375-10.92 29.787-7.6634 23.257-13.0877 45.53-16.0585 58.608l-6.245-.394c.4267-13.864 1.918-27.674 4.4607-41.308 4.0057-21.361 9.6798-37.318 15.7378-54.099 5.326-14.777 10.563-27.122 14.872-36.657Zm161.067-65.048c-1.214-.564-1.098-1.583-2.088-2.093-.68-.278-1.432-.326-2.142-.137s-1.339.604-1.792 1.183c-.973 1.28-.375 3.122.08 4.831 1.2 5.065 1.82 10.251 1.847 15.457.067 2.375-.122 4.75-.562 7.084-.616 3.158-1.526 5.269-3.373 9.419-5.245 11.799-4.889 10.913-5.219 11.629-5.477 11.199-8.225 16.807-12.044 22.783-1.782 2.651-3.277 5.484-4.46 8.453-1.057 2.821-1.863 5.731-2.409 8.694-1.213 5.367-2.114 6.655-5.299 15.779-1.687 4.822-3.944 11.271-5.942 18.678-3.943 14.607-1.427 12.693-4.898 24.715-1.503 5.94-2.105 12.074-1.784 18.194.053 1.002.205 2.978 1.606 3.945.592.355 1.266.549 1.956.563.69.014 1.372-.152 1.978-.483 1.08-.581 1.784-1.664 2.971-6.521.803-3.327.892-4.392 1.606-7.97.178-.894.294-1.386 1.784-7.406 1.044-4.294 1.57-6.432 1.927-7.89 1.392-5.653 3.854-16.101 5.942-25.52 4.273-19.294 3.8-19.894 6.102-26.728 1.817-5.338 3.944-10.565 6.37-15.653 5.897-12.792 7.681-13.373 12.606-24.152.464-1.011 0-.116 8.35-24.393 3.506-13.194 1.642-19.849.313-21.236-.366-.375-.799-.679-1.276-.894-.937-.403-1.401.009-2.15-.331Zm-48.015 197.085c.994-3.009 1.667-6.116 2.007-9.267.143-1.324.214-2.594.241-3.784-.079-.49-.263-.956-.541-1.367-.277-.411-.641-.757-1.065-1.012-.636-.275-1.339-.353-2.02-.224-.68.129-1.307.459-1.798.948-.304.296-.723.805-1.24 3.909-.625 3.722-.313 4.634-1.285 5.958-.58.787-.972.894-1.329 1.69-.255.569-.37 1.192-.334 1.815.036.622.22 1.227.539 1.763 1.062 1.423 4.148 1.691 6.825-.429Z"/>
        <path stroke="#C4C4C4" stroke-linecap="round" stroke-linejoin="round" stroke-width="8" d="M268.35 110.221c3.211-1.401 6.628-2.271 10.116-2.576 1.392-.126 5.978-.421 14.275 1.932 6.485 1.849 12.695 4.556 18.467 8.05"/>
        <path fill="#000" d="M455.263 573.913c-3.067-68.454-13.652-136.361-31.564-202.488-1.088-4.142-2.32-8.239-3.47-12.353l-1.785-6.173c-.598-2.057-1.24-4.096-1.864-6.145l-3.756-12.263-3.952-12.201c-5.395-16.215-11.236-32.292-17.522-48.232-12.587-31.826-26.919-62.931-42.93-93.171l.169 2.683c3.037-7.904 4.609-16.298 4.64-24.769.039-8.523-1.671-16.963-5.023-24.795-3.319-7.872-8.242-14.962-14.453-20.815-6.22-5.743-13.41-10.328-21.233-13.543-3.903-1.6425-7.946-2.9269-12.08-3.8374-4.107-.9246-8.285-1.5021-12.49-1.7264-8.551-.4696-17.096 1.0297-24.98 4.3831-3.939 1.7017-7.649 3.8927-11.044 6.5207-3.367 2.614-6.416 5.617-9.082 8.945-2.643 3.312-4.902 6.913-6.736 10.734-1.836 3.806-3.251 7.801-4.22 11.915-.184.712-.079 1.468.292 2.102.371.634.979 1.094 1.689 1.279.71.185 1.464.08 2.096-.292.632-.373 1.091-.982 1.276-1.694 1.056-3.663 2.482-7.208 4.256-10.582 1.769-3.348 3.883-6.502 6.307-9.41 4.821-5.76 10.936-10.291 17.843-13.22 6.954-2.842 14.461-4.066 21.955-3.578 3.81.209 7.594.745 11.313 1.601 3.697.824 7.313 1.98 10.804 3.452 7.031 2.894 13.493 7.019 19.083 12.184 5.519 5.149 9.915 11.39 12.909 18.328 2.986 6.969 4.554 14.465 4.612 22.049.073 7.628-1.236 15.205-3.863 22.363-.161.434-.229.897-.2 1.36.029.462.155.913.37 1.323 15.91 30.071 30.147 61.003 42.644 92.653 6.216 15.779 12.02 31.731 17.415 47.856l3.934 12.12 3.729 12.184c.616 2.03 1.258 4.052 1.847 6.091l1.785 6.127c1.133 4.088 2.337 8.158 3.407 12.228 17.798 65.67 28.309 133.11 31.341 201.093.038.869.419 1.686 1.058 2.273.639.587 1.484.896 2.35.858.866-.038 1.682-.419 2.268-1.06.585-.641.893-1.489.855-2.357Z"/>
        <path fill="#000" d="M310.004 162.218c-10.946-6.416-22.459-11.806-34.393-16.101-11.985-4.265-24.345-7.382-36.916-9.312-6.335-.894-12.49-1.672-18.86-2.191-6.37-.519-12.713-.787-19.101-.671-6.418.1-12.821.644-19.163 1.628l-2.382.358-2.373.465c-1.571.331-3.168.572-4.729.993l-4.693 1.163-4.63 1.395c-1.552.429-3.06 1.038-4.576 1.574-1.517.537-3.052 1.065-4.524 1.789l-4.46 1.924c-1.437.661-2.864 1.341-4.309 2.048-5.806 2.838-11.381 6.128-16.675 9.839-5.317 3.733-10.267 7.965-14.782 12.64-4.553 4.67-8.593 9.816-12.053 15.349-3.4774 5.55-6.2949 11.488-8.3953 17.694-2.0448 6.135-3.5172 12.447-4.3983 18.856-.8397 6.378-1.2272 12.807-1.1597 19.24.1008 6.389.5475 12.767 1.3382 19.107.0925.703.4523 1.342 1.0041 1.785.5518.442 1.2529.654 1.9567.591.7039-.064 1.356-.398 1.8201-.932.4641-.535.7042-1.228.6701-1.936v-.098c-.1874-3.095-.5175-6.172-.571-9.258-.0446-1.539-.1606-3.086-.1517-4.625v-4.616c.0923-6.132.608-12.25 1.5435-18.31.8971-6.009 2.3425-11.923 4.3179-17.666 2.0154-5.663 4.6894-11.067 7.9664-16.102 6.599-10.171 15.114-18.952 25.07-25.851 4.972-3.501 10.206-6.611 15.657-9.302 1.374-.671 2.765-1.342 4.175-1.986l4.175-1.789c1.383-.635 2.819-1.127 4.238-1.664 1.418-.537 2.828-1.109 4.291-1.53l4.345-1.359 4.416-1.145c1.463-.412 2.971-.653 4.461-.984l2.239-.465 2.257-.358c6.031-1.004 12.124-1.584 18.236-1.735 6.153-.161 12.311-.009 18.449.456 6.138.456 12.419 1.046 18.503 1.789 24.575 3.341 48.355 11.06 70.221 22.792.228.128.48.209.739.24.26.031.524.01.776-.062.252-.071.487-.192.692-.354.206-.163.377-.365.505-.594.128-.229.209-.481.24-.741.03-.261.009-.525-.062-.778-.071-.252-.191-.488-.354-.694-.162-.206-.363-.378-.591-.506Z"/>
        <path fill="#000" d="M99.111 256.123c-4.96.145-9.8299 1.366-14.2743 3.578-4.5059 2.271-8.4149 5.575-11.4105 9.643-1.4621 2.013-2.7316 4.161-3.7917 6.413-1.1116 2.229-2.0078 4.559-2.6764 6.96-1.2621 4.736-1.8626 9.625-1.7843 14.526.0857 4.811.6233 9.603 1.6059 14.312.9987 4.663 2.3711 9.236 4.1038 13.677 1.7019 4.44 3.7451 8.741 6.1112 12.863 1.2044 2.093 2.4623 4.043 3.7649 6.011 1.3025 1.968 2.6764 3.864 4.1127 5.734 5.6804 7.581 12.4477 14.279 20.0817 19.876 7.722 5.712 16.667 9.541 26.122 11.181 4.676.703 9.413.91 14.132.617 4.657-.214 9.216-.689 13.766-1.181 9.153-1.001 18.209-2.754 27.076-5.241.249-.069.46-.234.587-.459.127-.225.16-.491.091-.74-.068-.235-.221-.436-.429-.564-.207-.129-.455-.177-.695-.134-8.89 1.731-17.89 2.843-26.934 3.328-9.073.411-18.19 1.029-26.684-.707-8.493-1.735-16.433-5.769-23.4-11.038-6.947-5.458-13.1-11.862-18.2805-19.026-1.3114-1.789-2.5694-3.578-3.7648-5.474-1.1955-1.897-2.3821-3.775-3.417-5.662-2.1178-3.855-3.9688-7.851-5.5402-11.96-1.5582-4.094-2.8019-8.301-3.7202-12.586-.9225-4.244-1.4452-8.565-1.5613-12.907-.1161-4.244.3248-8.484 1.3115-12.613.5111-2.024 1.1977-3.999 2.0519-5.903.8211-1.92 1.8186-3.759 2.9798-5.493 2.3083-3.404 5.3592-6.236 8.9214-8.283 3.6529-2.078 7.6905-3.387 11.8655-3.846.6199-.074 1.1869-.385 1.5839-.867.397-.483.594-1.1.549-1.724-.045-.624-.327-1.206-.789-1.627-.462-.42-1.0681-.646-1.6918-.63l.0268-.054Z"/>
        <path stroke="#000" stroke-linecap="round" stroke-linejoin="round" stroke-width="8" d="M73.0781 574.503c2.3781-19.689 5.9533-39.213 10.7057-58.465 7.3602-29.84 15.791-51.612 22.1612-67.982 9.024-23.119 19.344-45.709 30.912-67.66m26.024-236.783c-.348-2.219-2.98-17.461-17.004-25.807-11.598-6.923-23.339-4.472-27.086-3.649-17.45 3.909-25.6935 18.427-27.2994 21.253-1.9806 3.489-6.9052 12.434-5.7811 24.474 1.6326 17.595 14.8635 27.676 17.1555 29.384"/>
        <path fill="#000" d="M163.996 379.681c-4.01.55-7.945 1.552-11.731 2.987-4.226 1.45-8.195 3.563-11.759 6.262-3.683 2.878-6.815 6.403-9.242 10.403l7.788-20.797 24.944 1.145Zm167.679 196.307c8.082-14.855 15.428-30.091 22.036-45.709 3.327-7.818 6.245-15.761 9.153-23.696 2.908-7.934 5.549-15.966 8.101-24.026 2.551-8.059 4.951-16.164 7.137-24.348 1.124-4.079 2.114-8.203 3.14-12.309.509-2.057.946-4.132 1.419-6.199.473-2.066.945-4.141 1.347-6.261l1.249-6.262 1.124-6.207c.767-4.097 1.597-8.167 2.516-12.219.455-2.013.963-4.079 1.391-6.262.206-1.082.393-2.156.563-3.229l.472-3.113c.134-.984.384-1.735.473-2.63.078-.919.224-1.831.437-2.728.445-1.899 1.116-3.737 1.999-5.474.166-.334.213-.715.135-1.08-.078-.365-.278-.693-.566-.929-.289-.236-.649-.367-1.021-.371-.372-.004-.735.119-1.028.349-1.841 1.45-3.451 3.172-4.773 5.108-.675 1.005-1.271 2.061-1.785 3.157-.461 1.124-.761 2.308-.892 3.516l-.473 3.122c-.151 1.01-.33 2.003-.517 2.987-.366 1.95-.892 3.963-1.329 6.047-.893 4.151-1.785 8.328-2.543 12.523l-1.106 6.208-1.214 6.118c-.383 2.049-.847 4.079-1.302 6.11-.455 2.03-.892 4.07-1.383 6.1-.999 4.043-1.963 8.105-3.069 12.13-2.123 8.05-4.461 16.101-6.985 24.071-2.525 7.97-5.157 15.913-7.967 23.785-2.81 7.871-5.719 15.707-8.922 23.373-6.453 15.391-13.664 30.443-21.634 45.154-.381.779-.447 1.675-.184 2.502.263.826.833 1.519 1.593 1.933.76.414 1.65.518 2.485.29.834-.227 1.549-.77 1.994-1.513l-.071-.018Zm-119.895-1.056c2.569-15.952 5.84-31.755 9.813-47.408 3.973-15.654 8.633-31.105 13.98-46.353 5.353-15.249 11.301-30.258 17.843-45.03 6.542-14.771 13.709-29.238 21.501-43.401.255-.413.424-.873.496-1.353.073-.481.047-.971-.076-1.441-.123-.47-.34-.909-.638-1.293-.298-.383-.67-.701-1.095-.935-.424-.234-.892-.379-1.374-.426-.482-.047-.969.005-1.43.152-.462.148-.888.388-1.254.707-.366.318-.664.708-.874 1.145-7.833 14.348-15.072 29-21.715 43.956-6.644 14.956-12.654 30.163-18.03 45.62-5.395 15.433-10.099 31.093-14.114 46.979-4.015 15.886-7.286 31.904-9.814 48.053-.083.454-.074.921.025 1.372.099.452.287.879.553 1.256.266.377.605.698.996.942.391.245.827.408 1.282.482.456.073.921.054 1.369-.055.447-.109.869-.307 1.24-.582.37-.275.682-.622.917-1.019.235-.398.389-.838.452-1.296l-.053-.072Z"/>
        <path fill="#000" d="M264.443 396.9c.201-.58.338-1.18.41-1.789.084-.708.084-1.422 0-2.129-.509-4.804-.437-5.305-.143-5.752.571-.895 1.668-1.011 2.891-1.181.589-.08 4.46-.653 6.807 2.174.557.607.968 1.333 1.203 2.124.235.79.287 1.624.153 2.438-.183.727-.516 1.407-.977 1.997-.46.59-1.04 1.077-1.7 1.429l-8.644.689Z"/>
    </g>
    <defs>
        <clipPath id="a">
            <path fill="#fff" d="M0 0h470v578H0z" transform="matrix(-1 0 0 1 470 0)"/>
        </clipPath>
    </defs>
</svg>