<svg xmlns="http://www.w3.org/2000/svg" width="21" height="33" viewBox="0 0 21 33">
    <g fill="none" fill-rule="evenodd">
        <path fill="#F5A623" d="M8.406 22.697c.466.383.96.79 1.48 1.23a.946.946 0 0 0 1.224 0c.519-.44 1.014-.847 1.48-1.23 2.665-2.19 4.592-3.774 4.592-6.157 0-2.24-1.678-3.994-3.82-3.994-1.361 0-2.276.677-2.864 1.4-.587-.723-1.5-1.4-2.864-1.4-2.14 0-3.819 1.754-3.819 3.994 0 2.383 1.926 3.966 4.591 6.157z"/>
        <path fill="#1F8D36" d="M17.182 8.276V3.384c0-.793-.65-1.45-1.432-1.45-.783 0-1.432.657-1.432 1.45v7.325c.36.06.705.156 1.038.281.19-1.163.867-2.154 1.826-2.714zM12.41 10.74V1.45c0-.793-.65-1.45-1.433-1.45S9.545.657 9.545 1.45v9.54c.326.12.656.233.954.417.58-.358 1.231-.552 1.91-.668z"/>
        <path fill="#1F8D36" d="M19.09 9.668c-1.05 0-1.908.87-1.908 1.934v.515c1.169 1.079 1.909 2.638 1.909 4.423 0 3.304-2.456 5.322-5.299 7.66-.188.154-.402.334-.6.498a.922.922 0 0 1-.449.372c-.14.117-.266.219-.41.34a2.846 2.846 0 0 1-1.835.674 2.845 2.845 0 0 1-1.832-.67c-.516-.438-1.005-.838-1.463-1.216-2.842-2.338-5.297-4.355-5.297-7.658 0-1.24.352-2.379.958-3.32V7.25c0-.793-.65-1.45-1.432-1.45C.649 5.8 0 6.458 0 7.25V21.27h.057c.249 2.842 1.566 5.414 3.761 7.231v3.532c0 .542.42.967.955.967h11.454a.951.951 0 0 0 .955-.967v-3.532A10.618 10.618 0 0 0 21 20.303v-8.701c0-1.064-.86-1.934-1.91-1.934z"/>
        <path fill="#1F8D36" d="M7.636 10.612V3.384c0-.793-.649-1.45-1.431-1.45-.783 0-1.432.657-1.432 1.45v8.026a5.601 5.601 0 0 1 2.862-.798h.001z"/>
    </g>
</svg>
