<svg xmlns="http://www.w3.org/2000/svg" width="25" height="25" viewBox="0 0 25 25">
    <g fill="none" fill-rule="evenodd">
        <path fill="#F5A623" d="M19.14 20.508h-.394c.25.431.394.931.394 1.465V25h1.465v-3.027c0-.808-.657-1.465-1.465-1.465zM16.21 20.508h-1.177L16.211 25h1.464v-3.027c0-.808-.657-1.465-1.464-1.465z"/>
        <path fill="#062248" d="M13.326 13.991l.556 2.122H25v-2.93H13.595zM14.65 19.043h4.49a2.933 2.933 0 0 1 2.93 2.93V25H25v-7.422H14.266l.384 1.465z"/>
        <path fill="#1F8D36" d="M13.516 8.79H1.18l1.717 5.151L0 25h14.696L11.8 13.941z"/>
        <path fill="#9197A4" d="M25 0H13.232a2.93 2.93 0 0 0-2.93 2.93H22.07A2.93 2.93 0 0 0 25 0zM16.162 4.395H4.394a2.93 2.93 0 0 0-2.93 2.93h11.768a2.93 2.93 0 0 0 2.93-2.93z"/>
    </g>
</svg>
