<svg xmlns="http://www.w3.org/2000/svg" width="24" height="30" viewBox="0 0 24 30">
    <g fill="none" fill-rule="nonzero">
        <path fill="#062248" d="M17.455 4.286V2.143C17.455.964 16.473 0 15.273 0H2.182C.982 0 0 .964 0 2.143v25.714C0 29.036.982 30 2.182 30h13.09c1.2 0 2.183-.964 2.183-2.143v-8.571h-2.182v4.285H2.182V2.143h13.09v2.143h2.183zM7.636 25.714h2.182v2.143H7.636v-2.143z"/>
        <path fill="#F5A623" d="M21.818 6.429h-12c-1.205 0-2.182.958-2.182 2.142V15c0 1.183.977 2.143 2.182 2.143h12c1.206 0 2.182-.96 2.182-2.143V8.571c0-1.183-.976-2.142-2.182-2.142zM12 15H9.818v-1.071H12V15zm0-4.286H9.818V8.571H12v2.143zM15.273 15H13.09v-1.071h2.182V15zm3.272 0h-2.181v-1.071h2.181V15zm3.273 0h-2.182v-1.071h2.182V15z"/>
    </g>
</svg>
