<svg xmlns="http://www.w3.org/2000/svg" width="25" height="25" viewBox="0 0 25 25">
    <g fill="none" fill-rule="evenodd">
        <path fill="#000" d="M3.765 19.613H2.694A2.697 2.697 0 0 0 0 22.306v1.962c0 .404.328.732.732.732h3.16a2.184 2.184 0 0 1-.127-.732v-4.655z"/>
        <path fill="#1F8D36" d="M8.995 15.69H7.924a2.697 2.697 0 0 0-2.694 2.694v5.884c0 .404.328.732.732.732h3.16a2.188 2.188 0 0 1-.127-.732V15.69z"/>
        <path fill="#F5A623" d="M24.856 7.357l-5.23-7.06a.733.733 0 0 0-1.177 0l-5.23 7.06a.733.733 0 0 0 .588 1.168h1.883v15.743c0 .404.328.732.732.732h5.23a.732.732 0 0 0 .733-.732V8.525h1.883a.732.732 0 0 0 .588-1.168z"/>
        <path fill="#1C89BA" d="M14.225 11.768h-1.071a2.697 2.697 0 0 0-2.694 2.693v9.807c0 .404.328.732.732.732h3.16a2.188 2.188 0 0 1-.127-.732v-12.5z"/>
    </g>
</svg>
