<svg xmlns="http://www.w3.org/2000/svg" width="26" height="25" viewBox="0 0 26 25">
    <g fill="none" fill-rule="evenodd">
        <path fill="#A86800" d="M6.073 4.777l10.359-2.83-.549-1.11a1.46 1.46 0 0 0-1.955-.66l-9.274 4.6h1.419zM19.647 2.029c-.128 0-.256.017-.385.052l-2.433.666-7.433 2.03H21.51l-.455-1.67a1.457 1.457 0 0 0-1.407-1.078z"/>
        <path fill="#F5A623" d="M23.03 5.8H1.461a1.456 1.456 0 0 0-1.41 1.077A1.513 1.513 0 0 0 0 7.259v16.27c0 .807.654 1.461 1.459 1.461h21.567a1.46 1.46 0 0 0 1.46-1.46v-4.074h-8.658a2.483 2.483 0 0 1-2.48-2.483V13.725c0-.671.268-1.282.703-1.728a2.455 2.455 0 0 1 1.774-.751H24.486V7.259a1.456 1.456 0 0 0-1.457-1.46z"/>
        <path fill="#A86800" fill-rule="nonzero" d="M25.51 12.642a1.457 1.457 0 0 0-.984-.383h-8.698a1.46 1.46 0 0 0-1.46 1.46V16.97c0 .806.654 1.46 1.46 1.46h8.698c.167 0 .324-.029.473-.078.193-.065.365-.17.51-.304.293-.266.476-.651.476-1.078v-3.25c0-.427-.183-.812-.475-1.078zm-6.636 2.994a.73.73 0 0 1-.73.73h-.484a.73.73 0 0 1-.73-.73v-.485a.737.737 0 0 1 .73-.73h.485a.73.73 0 0 1 .73.73v.485z"/>
    </g>
</svg>
