<svg xmlns="http://www.w3.org/2000/svg" width="33" height="25" viewBox="0 0 33 25">
    <g fill="none" fill-rule="evenodd">
        <path fill="#F5A623" d="M5.048.005h-.003a1.17 1.17 0 0 0-1.175 1.17v17.552c0 .644.53 1.169 1.183 1.17 2.748.007 7.353.575 10.53 3.87V5.399c0-.218-.056-.423-.162-.593C12.814.644 7.803.012 5.048.006zM29.13 18.727V1.176c0-.314-.124-.61-.348-.831a1.17 1.17 0 0 0-.827-.34h-.003c-2.755.007-7.765.64-10.373 4.801-.106.17-.162.375-.162.593v18.368c3.177-3.296 7.782-3.863 10.53-3.87a1.18 1.18 0 0 0 1.183-1.17z"/>
        <path fill="#A86800" d="M31.82 4.053h-.857v14.674c0 1.643-1.35 2.983-3.011 2.987-2.332.006-6.176.458-8.898 3.012 4.708-1.143 9.672-.4 12.5.239.354.08.72-.003 1.002-.226a1.16 1.16 0 0 0 .444-.914V5.223c0-.645-.53-1.17-1.18-1.17zM2.037 18.727V4.053H1.18C.53 4.053 0 4.578 0 5.223v18.601c0 .358.162.691.444.914.283.224.647.307 1.001.227 2.829-.64 7.793-1.382 12.501-.24-2.722-2.553-6.566-3.005-8.898-3.01-1.66-.005-3.011-1.345-3.011-2.988z"/>
    </g>
</svg>
